<?xml version="1.0" encoding="UTF-8" standalone="no"?>
<svg width="372px" height="165px" viewBox="0 0 372 165" version="1.1" xmlns="http://www.w3.org/2000/svg" xmlns:xlink="http://www.w3.org/1999/xlink" xmlns:sketch="http://www.bohemiancoding.com/sketch/ns">
    <!-- Generator: Sketch 3.2.2 (9983) - http://www.bohemiancoding.com/sketch -->
    <title>devices</title>
    <desc>Created with Sketch.</desc>
    <defs>
        <filter x="-50%" y="-50%" width="200%" height="200%" filterUnits="objectBoundingBox" id="filter-1">
            <feOffset dx="0" dy="1" in="SourceAlpha" result="shadowOffsetOuter1"></feOffset>
            <feGaussianBlur stdDeviation="1.5" in="shadowOffsetOuter1" result="shadowBlurOuter1"></feGaussianBlur>
            <feColorMatrix values="0 0 0 0 0   0 0 0 0 0   0 0 0 0 0  0 0 0 0.07 0" in="shadowBlurOuter1" type="matrix" result="shadowMatrixOuter1"></feColorMatrix>
            <feMerge>
                <feMergeNode in="shadowMatrixOuter1"></feMergeNode>
                <feMergeNode in="SourceGraphic"></feMergeNode>
            </feMerge>
        </filter>
    </defs>
    <g id="Page-1" stroke="none" stroke-width="1" fill="none" fill-rule="evenodd" sketch:type="MSPage">
        <g id="Desktop" sketch:type="MSArtboardGroup" transform="translate(-81.000000, -588.000000)">
            <rect id="Rectangle-5" fill="#FFFFFF" filter="url(#filter-1)" sketch:type="MSShapeGroup" x="33" y="466" width="468" height="350" rx="2"></rect>
            <g id="Group" sketch:type="MSLayerGroup" transform="translate(82.000000, 589.000000)">
                <circle id="Oval-7" stroke-opacity="0.1" stroke="#191919" fill="#4990E2" sketch:type="MSShapeGroup" cx="194" cy="68" r="68"></circle>
                <circle id="Oval-8" stroke-opacity="0.1" stroke="#191919" fill="#4990E2" sketch:type="MSShapeGroup" cx="48" cy="108" r="28"></circle>
                <circle id="Oval-9" stroke-opacity="0.1" stroke="#191919" fill="#4990E2" sketch:type="MSShapeGroup" cx="329" cy="119" r="17"></circle>
                <path d="M180.515625,76.671875 C180.515625,78.5859471 179.763679,80.2200453 178.259766,81.5742188 C176.755852,82.9283922 174.688815,83.6054688 172.058594,83.6054688 C169.428372,83.6054688 167.387377,82.9544336 165.935547,81.6523438 C164.483717,80.3502539 163.757812,78.7487074 163.757812,76.8476562 C163.757812,75.3762947 164.268875,74.0449278 165.291016,72.8535156 C166.313156,71.6621034 167.40364,70.9231785 168.5625,70.6367188 C167.130201,69.8424439 166.039717,69.02865 165.291016,68.1953125 C164.542314,67.361975 164.167969,66.3528705 164.167969,65.1679688 C164.167969,62.9153533 164.906894,61.131517 166.384766,59.8164062 C167.862638,58.5012955 169.864571,57.84375 172.390625,57.84375 C174.916679,57.84375 176.837233,58.4947852 178.152344,59.796875 C179.467454,61.0989648 180.125,62.7005113 180.125,64.6015625 C180.125,65.9817777 179.701827,67.2122342 178.855469,68.2929688 C178.00911,69.3737033 177.032558,70.1419248 175.925781,70.5976562 C177.35808,71.3268266 178.360674,72.0169238 178.933594,72.6679688 C179.506513,73.3190137 179.91341,73.9342419 180.154297,74.5136719 C180.395183,75.0931019 180.515625,75.8124957 180.515625,76.671875 L180.515625,76.671875 Z M167.078125,76.5742188 C167.078125,77.7851623 167.566401,78.7714806 168.542969,79.5332031 C169.519536,80.2949257 170.789055,80.6757812 172.351562,80.6757812 C173.91407,80.6757812 175.105465,80.3502637 175.925781,79.6992188 C176.746098,79.0481738 177.15625,78.1237039 177.15625,76.9257812 C177.15625,75.2721271 176.329435,74.0709673 174.675781,73.3222656 C173.022127,72.573564 171.811202,72.03646 171.042969,71.7109375 C169.845046,72.1145854 168.884769,72.7233032 168.162109,73.5371094 C167.43945,74.3509155 167.078125,75.3632752 167.078125,76.5742188 L167.078125,76.5742188 Z M176.804688,64.7578125 C176.804688,63.5598898 176.365239,62.5931026 175.486328,61.8574219 C174.607417,61.1217411 173.45834,60.7539062 172.039062,60.7539062 C170.619785,60.7539062 169.506514,61.1282515 168.699219,61.8769531 C167.891923,62.6256548 167.488281,63.5208281 167.488281,64.5625 C167.488281,66.098966 168.289054,67.2220017 169.890625,67.9316406 C171.492196,68.6412796 172.677079,69.1588525 173.445312,69.484375 C175.684907,68.5338494 176.804688,66.9583443 176.804688,64.7578125 L176.804688,64.7578125 Z M191.960938,83 L188.71875,83 L188.71875,67.6484375 L184.070312,69.1132812 L183.953125,66.125 L191.960938,63.4882812 L191.960938,83 Z M218.386719,72.8046875 C217.019524,72.8046875 215.932296,73.2408811 215.125,74.1132812 C214.317704,74.9856814 213.914062,76.0598895 213.914062,77.3359375 C213.914062,78.5989646 214.304684,79.679683 215.085938,80.578125 C215.867191,81.476567 216.964186,81.9257812 218.376953,81.9257812 C219.789721,81.9257812 220.88997,81.476567 221.677734,80.578125 C222.465499,79.679683 222.859375,78.5989646 222.859375,77.3359375 C222.859375,76.0729104 222.455733,75.0019575 221.648438,74.1230469 C220.841142,73.2441362 219.753913,72.8046875 218.386719,72.8046875 L218.386719,72.8046875 Z M203.181641,59.1132812 C201.768873,59.1132812 200.668624,59.5624955 199.880859,60.4609375 C199.093095,61.3593795 198.699219,62.4335875 198.699219,63.6835938 C198.699219,64.9336 199.102861,66.0045528 199.910156,66.8964844 C200.717452,67.7884159 201.807936,68.234375 203.181641,68.234375 C204.555345,68.234375 205.645829,67.7916711 206.453125,66.90625 C207.260421,66.0208289 207.664062,64.9466209 207.664062,63.6835938 C207.664062,62.4335875 207.270186,61.3593795 206.482422,60.4609375 C205.694658,59.5624955 204.594408,59.1132812 203.181641,59.1132812 L203.181641,59.1132812 Z M223.191406,82.0917969 C221.967442,83.3613345 220.365895,83.9960938 218.386719,83.9960938 C216.407542,83.9960938 214.805996,83.3613345 213.582031,82.0917969 C212.358067,80.8222593 211.746094,79.2500094 211.746094,77.375 C211.746094,75.5130115 212.361322,73.9375064 213.591797,72.6484375 C214.822272,71.3593686 216.420563,70.7148438 218.386719,70.7148438 C220.352874,70.7148438 221.951166,71.3561134 223.181641,72.6386719 C224.412116,73.9212304 225.027344,75.4999906 225.027344,77.375 C225.027344,79.2500094 224.415371,80.8222593 223.191406,82.0917969 L223.191406,82.0917969 Z M202.097656,83.6054688 L199.578125,83.6054688 L219.5,57.4335938 L222.019531,57.4335938 L202.097656,83.6054688 Z M207.976562,68.4003906 C206.739577,69.6829491 205.138031,70.3242188 203.171875,70.3242188 C201.205719,70.3242188 199.610683,69.6829491 198.386719,68.4003906 C197.162754,67.1178321 196.550781,65.5390719 196.550781,63.6640625 C196.550781,61.802074 197.162754,60.2330793 198.386719,58.9570312 C199.610683,57.6809832 201.205719,57.0429688 203.171875,57.0429688 C205.151052,57.0429688 206.755853,57.677728 207.986328,58.9472656 C209.216803,60.2168032 209.832031,61.7890531 209.832031,63.6640625 C209.832031,65.5390719 209.213548,67.1178321 207.976562,68.4003906 L207.976562,68.4003906 Z" id="81%" fill="#FAFAFA" sketch:type="MSShapeGroup"></path>
                <path d="M39.875,113 L38.578125,113 L38.578125,106.859375 L36.71875,107.445312 L36.671875,106.25 L39.875,105.195312 L39.875,113 Z M45.359375,113 L44.0625,113 L44.0625,106.859375 L42.203125,107.445312 L42.15625,106.25 L45.359375,105.195312 L45.359375,113 Z M55.9296875,108.921875 C55.3828098,108.921875 54.9479183,109.096352 54.625,109.445312 C54.3020817,109.794273 54.140625,110.223956 54.140625,110.734375 C54.140625,111.239586 54.2968734,111.671873 54.609375,112.03125 C54.9218766,112.390627 55.3606743,112.570312 55.9257812,112.570312 C56.4908882,112.570312 56.930988,112.390627 57.2460938,112.03125 C57.5611995,111.671873 57.71875,111.239586 57.71875,110.734375 C57.71875,110.229164 57.5572933,109.800783 57.234375,109.449219 C56.9114567,109.097654 56.4765652,108.921875 55.9296875,108.921875 L55.9296875,108.921875 Z M49.8476562,103.445312 C49.2825493,103.445312 48.8424495,103.624998 48.5273438,103.984375 C48.212238,104.343752 48.0546875,104.773435 48.0546875,105.273438 C48.0546875,105.77344 48.2161442,106.201821 48.5390625,106.558594 C48.8619808,106.915366 49.2981743,107.09375 49.8476562,107.09375 C50.3971382,107.09375 50.8333317,106.916668 51.15625,106.5625 C51.4791683,106.208332 51.640625,105.778648 51.640625,105.273438 C51.640625,104.773435 51.4830745,104.343752 51.1679688,103.984375 C50.852863,103.624998 50.4127632,103.445312 49.8476562,103.445312 L49.8476562,103.445312 Z M57.8515625,112.636719 C57.3619767,113.144534 56.7213581,113.398438 55.9296875,113.398438 C55.1380169,113.398438 54.4973983,113.144534 54.0078125,112.636719 C53.5182267,112.128904 53.2734375,111.500004 53.2734375,110.75 C53.2734375,110.005205 53.5195288,109.375003 54.0117188,108.859375 C54.5039087,108.343747 55.1432252,108.085938 55.9296875,108.085938 C56.7161498,108.085938 57.3554663,108.342445 57.8476562,108.855469 C58.3398462,109.368492 58.5859375,109.999996 58.5859375,110.75 C58.5859375,111.500004 58.3411483,112.128904 57.8515625,112.636719 L57.8515625,112.636719 Z M49.4140625,113.242188 L48.40625,113.242188 L56.375,102.773438 L57.3828125,102.773438 L49.4140625,113.242188 Z M51.765625,107.160156 C51.2708309,107.67318 50.6302123,107.929688 49.84375,107.929688 C49.0572877,107.929688 48.4192733,107.67318 47.9296875,107.160156 C47.4401017,106.647133 47.1953125,106.015629 47.1953125,105.265625 C47.1953125,104.52083 47.4401017,103.893232 47.9296875,103.382812 C48.4192733,102.872393 49.0572877,102.617188 49.84375,102.617188 C50.6354206,102.617188 51.2773413,102.871091 51.7695312,103.378906 C52.2617212,103.886721 52.5078125,104.515621 52.5078125,105.265625 C52.5078125,106.015629 52.2604191,106.647133 51.765625,107.160156 L51.765625,107.160156 Z" id="11%" fill="#FAFAFA" sketch:type="MSShapeGroup"></path>
                <path d="M326.655762,115.849121 L326.655762,116.775879 L322.986816,124.393066 L321.89502,124.393066 L325.500488,116.902832 L321.222168,116.902832 L321.260254,115.849121 L326.655762,115.849121 Z M334.203125,118.686523 C333.758787,118.686523 333.405438,118.828286 333.143066,119.111816 C332.880695,119.395346 332.749512,119.744464 332.749512,120.15918 C332.749512,120.569664 332.876464,120.920897 333.130371,121.212891 C333.384279,121.504884 333.740802,121.650879 334.199951,121.650879 C334.659101,121.650879 335.016682,121.504884 335.272705,121.212891 C335.528728,120.920897 335.656738,120.569664 335.656738,120.15918 C335.656738,119.748696 335.525555,119.400636 335.263184,119.11499 C335.000812,118.829344 334.647463,118.686523 334.203125,118.686523 L334.203125,118.686523 Z M329.261475,114.236816 C328.802325,114.236816 328.444744,114.382811 328.188721,114.674805 C327.932697,114.966798 327.804688,115.315916 327.804688,115.722168 C327.804688,116.12842 327.935871,116.47648 328.198242,116.766357 C328.460613,117.056235 328.815021,117.201172 329.261475,117.201172 C329.707929,117.201172 330.062336,117.057293 330.324707,116.769531 C330.587078,116.481769 330.718262,116.132652 330.718262,115.722168 C330.718262,115.315916 330.590252,114.966798 330.334229,114.674805 C330.078205,114.382811 329.720624,114.236816 329.261475,114.236816 L329.261475,114.236816 Z M335.764648,121.704834 C335.36686,122.117434 334.846357,122.32373 334.203125,122.32373 C333.559893,122.32373 333.03939,122.117434 332.641602,121.704834 C332.243813,121.292234 332.044922,120.781253 332.044922,120.171875 C332.044922,119.566729 332.244871,119.05469 332.644775,118.635742 C333.04468,118.216795 333.564124,118.007324 334.203125,118.007324 C334.842126,118.007324 335.36157,118.215737 335.761475,118.632568 C336.161379,119.0494 336.361328,119.562497 336.361328,120.171875 C336.361328,120.781253 336.162437,121.292234 335.764648,121.704834 L335.764648,121.704834 Z M328.90918,122.196777 L328.090332,122.196777 L334.564941,113.690918 L335.383789,113.690918 L328.90918,122.196777 Z M330.819824,117.255127 C330.417804,117.671958 329.897301,117.880371 329.258301,117.880371 C328.6193,117.880371 328.100913,117.671958 327.703125,117.255127 C327.305337,116.838295 327.106445,116.325198 327.106445,115.71582 C327.106445,115.110674 327.305337,114.600751 327.703125,114.186035 C328.100913,113.77132 328.6193,113.563965 329.258301,113.563965 C329.901533,113.563965 330.423094,113.770262 330.822998,114.182861 C331.222902,114.595461 331.422852,115.106442 331.422852,115.71582 C331.422852,116.325198 331.221844,116.838295 330.819824,117.255127 L330.819824,117.255127 Z" id="7%" fill="#FAFAFA" sketch:type="MSShapeGroup"></path>
                <path d="M307.504883,154.371094 L307.504883,162 L306.329102,162 L306.329102,154.371094 L303.266602,154.371094 L303.266602,153.25 L310.574219,153.25 L310.574219,154.371094 L307.504883,154.371094 Z M315.169922,154.480469 L313.65918,158.623047 L316.666992,158.623047 L315.169922,154.480469 Z M319.100586,162 L317.883789,162 L317.056641,159.703125 L313.262695,159.703125 L312.435547,162 L311.205078,162 L314.5,153.25 L315.853516,153.25 L319.100586,162 Z M326.314453,159.539062 C326.314453,158.623042 325.605801,158.165039 324.188477,158.165039 L322.46582,158.165039 L322.46582,160.90625 L324.366211,160.90625 C325.665046,160.910807 326.314453,160.455083 326.314453,159.539062 L326.314453,159.539062 Z M326.03418,155.676758 C326.03418,155.252928 325.88493,154.924806 325.586426,154.692383 C325.287922,154.45996 324.849287,154.34375 324.270508,154.34375 L322.46582,154.34375 L322.46582,157.084961 L324.085938,157.084961 C324.719404,157.084961 325.202472,156.956219 325.535156,156.69873 C325.86784,156.441242 326.03418,156.100588 326.03418,155.676758 L326.03418,155.676758 Z M327.503906,159.429688 C327.503906,160.268233 327.23275,160.906248 326.69043,161.34375 C326.148109,161.781252 325.336919,162 324.256836,162 L321.276367,162 L321.276367,153.25 L324.174805,153.25 C325.227544,153.25 325.998858,153.464191 326.48877,153.892578 C326.978681,154.320966 327.223633,154.881507 327.223633,155.574219 C327.223633,156.481124 326.724614,157.121417 325.726562,157.495117 C326.314456,157.645509 326.757648,157.896157 327.056152,158.24707 C327.354656,158.597984 327.503906,158.992185 327.503906,159.429688 L327.503906,159.429688 Z M330.199219,162 L330.199219,153.25 L331.388672,153.25 L331.388672,160.878906 L335.613281,160.878906 L335.613281,162 L330.199219,162 Z M338.110352,162 L338.110352,153.25 L343.654297,153.25 L343.654297,154.357422 L339.299805,154.357422 L339.299805,157.057617 L342.922852,157.057617 L342.922852,158.165039 L339.299805,158.165039 L339.299805,160.892578 L343.654297,160.892578 L343.654297,162 L338.110352,162 Z M349.829102,154.371094 L349.829102,162 L348.65332,162 L348.65332,154.371094 L345.59082,154.371094 L345.59082,153.25 L352.898438,153.25 L352.898438,154.371094 L349.829102,154.371094 Z" id="TABLET-----" fill="#ACB7C3" sketch:type="MSShapeGroup"></path>
                <path d="M162.416992,154.842773 C161.646806,154.350583 160.81283,154.104492 159.915039,154.104492 C159.017248,154.104492 158.281253,154.421221 157.707031,155.054688 C157.13281,155.688154 156.845703,156.538081 156.845703,157.604492 C156.845703,158.670904 157.139645,159.527666 157.727539,160.174805 C158.315433,160.821943 158.969397,161.145508 159.689453,161.145508 C160.409509,161.145508 160.986,161.063477 161.418945,160.899414 C161.85189,160.735351 162.223306,160.532553 162.533203,160.291016 L162.724609,161.480469 C161.949866,161.968101 161.04981,162.211914 160.024414,162.211914 C158.721022,162.211914 157.66488,161.794926 156.855957,160.960938 C156.047034,160.126949 155.642578,159.021817 155.642578,157.645508 C155.642578,156.269199 156.05273,155.157231 156.873047,154.30957 C157.693363,153.46191 158.743809,153.038086 160.024414,153.038086 C160.530276,153.038086 161.030434,153.104166 161.524902,153.236328 C162.019371,153.36849 162.444334,153.546223 162.799805,153.769531 L162.416992,154.842773 Z M171.616699,155.075195 C171.017412,154.428057 170.246098,154.104492 169.302734,154.104492 C168.35937,154.104492 167.592614,154.424639 167.002441,155.064941 C166.412269,155.705244 166.117188,156.55631 166.117188,157.618164 C166.117188,158.684576 166.415687,159.539059 167.012695,160.181641 C167.609704,160.824222 168.379878,161.145508 169.323242,161.145508 C170.271164,161.145508 171.040199,160.820804 171.630371,160.171387 C172.220543,159.521969 172.515625,158.670904 172.515625,157.618164 C172.515625,156.569982 172.215986,155.722334 171.616699,155.075195 L171.616699,155.075195 Z M166.134277,160.954102 C165.320797,160.115556 164.914062,159.024095 164.914062,157.679688 C164.914062,156.33528 165.327633,155.22559 166.154785,154.350586 C166.981938,153.475582 168.040358,153.038086 169.330078,153.038086 C170.619798,153.038086 171.671383,153.457353 172.484863,154.295898 C173.298344,155.134444 173.705078,156.225905 173.705078,157.570312 C173.705078,158.91472 173.28809,160.02441 172.454102,160.899414 C171.620113,161.774418 170.561693,162.211914 169.278809,162.211914 C167.995925,162.211914 166.947758,161.792647 166.134277,160.954102 L166.134277,160.954102 Z M184.001953,154.719727 L181.342773,161.876953 L180.146484,161.876953 L177.473633,154.706055 L177.37793,162 L176.21582,162 L176.509766,153.25 L178.088867,153.25 L180.782227,160.448242 L183.455078,153.25 L185.006836,153.25 L185.287109,162 L184.083984,162 L184.001953,154.719727 Z M192.952148,156.134766 C192.952148,154.949864 192.177417,154.357422 190.62793,154.357422 L189.452148,154.357422 L189.452148,157.980469 L190.723633,157.953125 C191.461918,157.934896 192.017902,157.769696 192.391602,157.45752 C192.765301,157.145343 192.952148,156.70443 192.952148,156.134766 L192.952148,156.134766 Z M189.452148,162 L188.262695,162 L188.262695,153.25 L190.682617,153.25 C191.844732,153.25 192.714027,153.505206 193.290527,154.015625 C193.867028,154.526044 194.155273,155.246089 194.155273,156.175781 C194.155273,157.100916 193.835127,157.812986 193.194824,158.312012 C192.554522,158.811038 191.689784,159.069661 190.600586,159.087891 L189.452148,159.101562 L189.452148,162 Z M203.618164,158.623047 C203.618164,160.341154 203.188644,161.368813 202.32959,161.706055 C201.470536,162.043296 200.758466,162.211914 200.193359,162.211914 C199.095047,162.211914 198.248538,161.900882 197.653809,161.278809 C197.059079,160.656735 196.761719,159.814784 196.761719,158.75293 L196.761719,153.25 L197.9375,153.25 L197.9375,158.568359 C197.9375,159.361332 198.126626,159.979978 198.504883,160.424316 C198.88314,160.868655 199.439124,161.09082 200.172852,161.09082 C200.906579,161.09082 201.46826,160.890301 201.85791,160.489258 C202.247561,160.088214 202.442383,159.477543 202.442383,158.657227 L202.442383,153.25 L203.618164,153.25 L203.618164,158.623047 Z M210.216797,154.371094 L210.216797,162 L209.041016,162 L209.041016,154.371094 L205.978516,154.371094 L205.978516,153.25 L213.286133,153.25 L213.286133,154.371094 L210.216797,154.371094 Z M215.65332,162 L215.65332,153.25 L221.197266,153.25 L221.197266,154.357422 L216.842773,154.357422 L216.842773,157.057617 L220.46582,157.057617 L220.46582,158.165039 L216.842773,158.165039 L216.842773,160.892578 L221.197266,160.892578 L221.197266,162 L215.65332,162 Z M228.623047,155.868164 C228.623047,155.344073 228.429364,154.958986 228.041992,154.712891 C227.65462,154.466796 227.123701,154.34375 226.449219,154.34375 L225.164062,154.34375 L225.164062,157.577148 L226.606445,157.536133 C227.536137,157.508789 228.104654,157.29118 228.312012,156.883301 C228.51937,156.475421 228.623047,156.137046 228.623047,155.868164 L228.623047,155.868164 Z M225.164062,162 L223.974609,162 L223.974609,153.25 L226.592773,153.25 C227.654628,153.25 228.456703,153.48242 228.999023,153.947266 C229.541344,154.412112 229.8125,155.004554 229.8125,155.724609 C229.8125,156.444665 229.634767,157.009764 229.279297,157.419922 C228.923826,157.83008 228.443037,158.133137 227.836914,158.329102 L230.202148,162 L228.787109,162 L226.661133,158.527344 L225.164062,158.623047 L225.164062,162 Z" id="Computer" fill="#ACB7C3" sketch:type="MSShapeGroup"></path>
                <path d="M3.71875,154.118164 C2.994137,154.118164 2.49397924,154.244628 2.21826172,154.497559 C1.94254419,154.75049 1.8046875,155.077472 1.8046875,155.478516 C1.8046875,155.879559 1.98697734,156.184895 2.3515625,156.394531 C2.71614766,156.604168 3.14908604,156.777343 3.65039062,156.914062 C4.15169521,157.050782 4.7532517,157.262694 5.45507812,157.549805 C6.15690455,157.836915 6.5078125,158.518224 6.5078125,159.59375 C6.5078125,160.354822 6.220706,160.981443 5.64648437,161.473633 C5.07226275,161.965823 4.28841643,162.211914 3.29492187,162.211914 C2.29687001,162.211914 1.36719181,161.936201 0.505859375,161.384766 L0.895507812,160.304688 C1.2692076,160.546225 1.66113076,160.746744 2.07128906,160.90625 C2.48144736,161.065756 2.95540096,161.145508 3.49316406,161.145508 C4.03092717,161.145508 4.47639797,161.00993 4.82958984,160.73877 C5.18278171,160.467609 5.359375,160.111005 5.359375,159.668945 C5.359375,159.226886 5.18961758,158.895346 4.85009766,158.674316 C4.51057773,158.453287 4.08333591,158.276693 3.56835938,158.144531 C3.05338284,158.012369 2.63981276,157.887045 2.32763672,157.768555 C2.01546068,157.650065 1.65657755,157.432456 1.25097656,157.115723 C0.845375576,156.798989 0.642578125,156.269209 0.642578125,155.526367 C0.642578125,154.783525 0.911455645,154.183108 1.44921875,153.725098 C1.98698186,153.267088 2.72525572,153.038086 3.6640625,153.038086 C4.60742659,153.038086 5.49608958,153.29557 6.33007812,153.810547 L5.90625,154.842773 C5.17252237,154.359698 4.443363,154.118164 3.71875,154.118164 L3.71875,154.118164 Z M16.7773438,154.719727 L14.1181641,161.876953 L12.921875,161.876953 L10.2490234,154.706055 L10.1533203,162 L8.99121094,162 L9.28515625,153.25 L10.8642578,153.25 L13.5576172,160.448242 L16.2304688,153.25 L17.7822266,153.25 L18.0625,162 L16.859375,162 L16.7773438,154.719727 Z M23.9638672,154.480469 L22.453125,158.623047 L25.4609375,158.623047 L23.9638672,154.480469 Z M27.8945312,162 L26.6777344,162 L25.8505859,159.703125 L22.0566406,159.703125 L21.2294922,162 L19.9990234,162 L23.2939453,153.25 L24.6474609,153.25 L27.8945312,162 Z M34.71875,155.868164 C34.71875,155.344073 34.525067,154.958986 34.1376953,154.712891 C33.7503236,154.466796 33.2194044,154.34375 32.5449219,154.34375 L31.2597656,154.34375 L31.2597656,157.577148 L32.7021484,157.536133 C33.6318406,157.508789 34.200357,157.29118 34.4077148,156.883301 C34.6150727,156.475421 34.71875,156.137046 34.71875,155.868164 L34.71875,155.868164 Z M31.2597656,162 L30.0703125,162 L30.0703125,153.25 L32.6884766,153.25 C33.7503308,153.25 34.5524061,153.48242 35.0947266,153.947266 C35.637047,154.412112 35.9082031,155.004554 35.9082031,155.724609 C35.9082031,156.444665 35.7304705,157.009764 35.375,157.419922 C35.0195295,157.83008 34.53874,158.133137 33.9326172,158.329102 L36.2978516,162 L34.8828125,162 L32.7568359,158.527344 L31.2597656,158.623047 L31.2597656,162 Z M41.8847656,154.371094 L41.8847656,162 L40.7089844,162 L40.7089844,154.371094 L37.6464844,154.371094 L37.6464844,153.25 L44.9541016,153.25 L44.9541016,154.371094 L41.8847656,154.371094 Z M52.0107422,156.134766 C52.0107422,154.949864 51.2360104,154.357422 49.6865234,154.357422 L48.5107422,154.357422 L48.5107422,157.980469 L49.7822266,157.953125 C50.5205115,157.934896 51.0764955,157.769696 51.4501953,157.45752 C51.8238951,157.145343 52.0107422,156.70443 52.0107422,156.134766 L52.0107422,156.134766 Z M48.5107422,162 L47.3212891,162 L47.3212891,153.25 L49.7412109,153.25 C50.9033261,153.25 51.7726208,153.505206 52.3491211,154.015625 C52.9256214,154.526044 53.2138672,155.246089 53.2138672,156.175781 C53.2138672,157.100916 52.8937206,157.812986 52.253418,158.312012 C51.6131153,158.811038 50.7483778,159.069661 49.6591797,159.087891 L48.5107422,159.101562 L48.5107422,162 Z M61.8222656,162 L61.8222656,158.137695 L57.0234375,158.137695 L57.0234375,162 L55.8339844,162 L55.8339844,153.25 L57.0234375,153.25 L57.0234375,157.057617 L61.8222656,157.057617 L61.8222656,153.25 L62.9980469,153.25 L62.9980469,162 L61.8222656,162 Z M72.4506836,155.075195 C71.8513967,154.428057 71.0800828,154.104492 70.1367188,154.104492 C69.1933547,154.104492 68.426598,154.424639 67.8364258,155.064941 C67.2462536,155.705244 66.9511719,156.55631 66.9511719,157.618164 C66.9511719,158.684576 67.2496715,159.539059 67.8466797,160.181641 C68.4436879,160.824222 69.2138625,161.145508 70.1572266,161.145508 C71.105148,161.145508 71.8741832,160.820804 72.4643555,160.171387 C73.0545277,159.521969 73.3496094,158.670904 73.3496094,157.618164 C73.3496094,156.569982 73.0499704,155.722334 72.4506836,155.075195 L72.4506836,155.075195 Z M66.9682617,160.954102 C66.1547811,160.115556 65.7480469,159.024095 65.7480469,157.679688 C65.7480469,156.33528 66.161617,155.22559 66.9887695,154.350586 C67.8159221,153.475582 68.8743425,153.038086 70.1640625,153.038086 C71.4537825,153.038086 72.505367,153.457353 73.3188477,154.295898 C74.1323283,155.134444 74.5390625,156.225905 74.5390625,157.570312 C74.5390625,158.91472 74.1220745,160.02441 73.2880859,160.899414 C72.4540974,161.774418 71.395677,162.211914 70.112793,162.211914 C68.829909,162.211914 67.7817423,161.792647 66.9682617,160.954102 L66.9682617,160.954102 Z M83.2636719,153.25 L84.4257812,153.25 L84.4257812,162.082031 L83.140625,162.082031 L78.4511719,154.945312 L78.4511719,162 L77.2890625,162 L77.2890625,153.25 L78.6015625,153.25 L83.2636719,160.304688 L83.2636719,153.25 Z M87.640625,162 L87.640625,153.25 L93.1845703,153.25 L93.1845703,154.357422 L88.8300781,154.357422 L88.8300781,157.057617 L92.453125,157.057617 L92.453125,158.165039 L88.8300781,158.165039 L88.8300781,160.892578 L93.1845703,160.892578 L93.1845703,162 L87.640625,162 Z" id="SMARTPHONE" fill="#ACB7C3" sketch:type="MSShapeGroup"></path>
            </g>
        </g>
    </g>
</svg>