<?xml version="1.0" encoding="UTF-8" standalone="no"?>
<svg width="157px" height="157px" viewBox="0 0 157 157" version="1.1" xmlns="http://www.w3.org/2000/svg" xmlns:xlink="http://www.w3.org/1999/xlink" xmlns:sketch="http://www.bohemiancoding.com/sketch/ns">
    <!-- Generator: Sketch 3.2.2 (9983) - http://www.bohemiancoding.com/sketch -->
    <title>digital-news</title>
    <desc>Created with Sketch.</desc>
    <defs>
        <filter x="-50%" y="-50%" width="200%" height="200%" filterUnits="objectBoundingBox" id="filter-1">
            <feOffset dx="0" dy="1" in="SourceAlpha" result="shadowOffsetOuter1"></feOffset>
            <feGaussianBlur stdDeviation="1.5" in="shadowOffsetOuter1" result="shadowBlurOuter1"></feGaussianBlur>
            <feColorMatrix values="0 0 0 0 0   0 0 0 0 0   0 0 0 0 0  0 0 0 0.07 0" in="shadowBlurOuter1" type="matrix" result="shadowMatrixOuter1"></feColorMatrix>
            <feMerge>
                <feMergeNode in="shadowMatrixOuter1"></feMergeNode>
                <feMergeNode in="SourceGraphic"></feMergeNode>
            </feMerge>
        </filter>
    </defs>
    <g id="Page-1" stroke="none" stroke-width="1" fill="none" fill-rule="evenodd" sketch:type="MSPage">
        <g id="Desktop" sketch:type="MSArtboardGroup" transform="translate(-189.000000, -203.000000)">
            <rect id="Rectangle-1" fill="#FFFFFF" filter="url(#filter-1)" sketch:type="MSShapeGroup" x="32" y="95" width="468" height="350" rx="2"></rect>
            <circle id="Oval-1" stroke-opacity="0.1" stroke="#000000" fill="#98CC31" sketch:type="MSShapeGroup" cx="267.5" cy="281.5" r="77.5"></circle>
            <circle id="Oval-2" fill-opacity="0.578209918" fill="#000000" sketch:type="MSShapeGroup" cx="316.5" cy="344" r="10"></circle>
            <rect id="Rectangle-7" stroke="#FFFFFF" stroke-width="2" sketch:type="MSShapeGroup" x="242" y="242" width="51" height="81" rx="4"></rect>
            <path d="M243,307 L292,307" id="Line" stroke="#FFFFFF" stroke-width="2" stroke-linecap="square" sketch:type="MSShapeGroup"></path>
            <circle id="Oval-3" stroke="#FFFFFF" stroke-width="2" sketch:type="MSShapeGroup" cx="267.5" cy="314.5" r="4.5"></circle>
            <path d="M243,251 L292,251" id="Line-2" stroke="#FFFFFF" stroke-width="2" stroke-linecap="square" sketch:type="MSShapeGroup"></path>
            <path d="M249,274 L286,274" id="Line-3" stroke="#FFFFFF" stroke-width="2" stroke-linecap="round" stroke-linejoin="round" sketch:type="MSShapeGroup"></path>
            <path d="M249,280 L286,280" id="Line-4" stroke="#FFFFFF" stroke-width="2" stroke-linecap="round" stroke-linejoin="round" sketch:type="MSShapeGroup"></path>
            <path d="M249,286 L286,286" id="Line-5" stroke="#FFFFFF" stroke-width="2" stroke-linecap="round" stroke-linejoin="round" sketch:type="MSShapeGroup"></path>
            <path d="M249,292 L286,292" id="Line-6" stroke="#FFFFFF" stroke-width="2" stroke-linecap="round" stroke-linejoin="round" sketch:type="MSShapeGroup"></path>
            <path d="M249,298 L277,298" id="Line-7" stroke="#FFFFFF" stroke-width="2" stroke-linecap="round" stroke-linejoin="round" sketch:type="MSShapeGroup"></path>
            <path d="M249.374,260.168 L249.374,260.322 L250.386,260.322 L250.386,267.846 L249.374,267.846 L249.374,268 L251.574,268 L251.574,267.846 L250.562,267.846 L250.562,260.949 L250.584,260.949 L255.534,268 L255.831,268 L255.831,260.322 L256.843,260.322 L256.843,260.168 L254.643,260.168 L254.643,260.322 L255.655,260.322 L255.655,265.404 L255.633,265.404 L251.97,260.168 L249.374,260.168 Z M258.558,260.168 L258.558,260.322 L259.57,260.322 L259.57,267.846 L258.558,267.846 L258.558,268 L265.587,268 L265.587,265.591 L265.444,265.591 C265.370666,265.906335 265.264334,266.201499 265.125,266.4765 C264.985666,266.751501 264.811501,266.991666 264.6025,267.197 C264.393499,267.402334 264.153335,267.561833 263.882,267.6755 C263.610665,267.789167 263.306335,267.846 262.969,267.846 L261.165,267.846 L261.165,263.875 L261.902,263.875 C262.158668,263.875 262.373166,263.919 262.5455,264.007 C262.717834,264.095 262.862666,264.214166 262.98,264.3645 C263.097334,264.514834 263.190833,264.688999 263.2605,264.887 C263.330167,265.085001 263.390666,265.290332 263.442,265.503 L263.585,265.503 L263.585,262.082 L263.442,262.082 C263.390666,262.331335 263.324667,262.556832 263.244,262.7585 C263.163333,262.960168 263.060667,263.132499 262.936,263.2755 C262.811333,263.418501 262.655501,263.5285 262.4685,263.6055 C262.281499,263.6825 262.052335,263.721 261.781,263.721 L261.165,263.721 L261.165,260.322 L262.914,260.322 C263.273335,260.322 263.577665,260.389833 263.827,260.5255 C264.076335,260.661167 264.279833,260.820666 264.4375,261.004 C264.595167,261.187334 264.718,261.376166 264.806,261.5705 C264.894,261.764834 264.956333,261.924333 264.993,262.049 L265.136,262.049 L265.136,260.168 L258.558,260.168 Z M266.972,260.168 L266.972,260.322 L267.874,260.322 L270.602,268.297 L270.921,268.297 L272.769,263.094 L272.791,263.094 L274.595,268.297 L274.914,268.297 L277.741,260.322 L278.632,260.322 L278.632,260.168 L276.608,260.168 L276.608,260.322 L277.554,260.322 L275.519,266.13 L275.497,266.13 L273.506,260.322 L274.529,260.322 L274.529,260.168 L271.24,260.168 L271.24,260.322 L271.834,260.322 L272.692,262.841 L271.537,266.119 L271.515,266.119 L269.535,260.322 L270.338,260.322 L270.338,260.168 L266.972,260.168 Z M280.193,265.558 L280.193,268 L280.369,268 C280.405667,267.897333 280.446,267.8295 280.49,267.7965 C280.534,267.7635 280.607333,267.747 280.71,267.747 C280.783334,267.747 280.895166,267.769 281.0455,267.813 C281.195834,267.857 281.368166,267.902833 281.5625,267.9505 C281.756834,267.998167 281.965832,268.044 282.1895,268.088 C282.413168,268.132 282.638666,268.154 282.866,268.154 C283.320669,268.154 283.733165,268.082501 284.1035,267.9395 C284.473835,267.796499 284.792832,267.604001 285.0605,267.362 C285.328168,267.119999 285.535333,266.837668 285.682,266.515 C285.828667,266.192332 285.902,265.851335 285.902,265.492 C285.902,265.125332 285.834167,264.817335 285.6985,264.568 C285.562833,264.318665 285.385001,264.106001 285.165,263.93 C284.944999,263.753999 284.693835,263.609167 284.4115,263.4955 C284.129165,263.381833 283.839501,263.277334 283.5425,263.182 C283.245499,263.086666 282.955835,262.995 282.6735,262.907 C282.391165,262.819 282.140001,262.714501 281.92,262.5935 C281.699999,262.472499 281.522167,262.327668 281.3865,262.159 C281.250833,261.990332 281.183,261.777668 281.183,261.521 C281.183,261.352332 281.223333,261.187334 281.304,261.026 C281.384667,260.864666 281.501999,260.718001 281.656,260.586 C281.810001,260.453999 281.998832,260.347667 282.2225,260.267 C282.446168,260.186333 282.704665,260.146 282.998,260.146 C283.357335,260.146 283.654332,260.208333 283.889,260.333 C284.123668,260.457667 284.317999,260.620832 284.472,260.8225 C284.626001,261.024168 284.7525,261.249665 284.8515,261.499 C284.9505,261.748335 285.044,262.001332 285.132,262.258 L285.275,262.258 L285.275,260.168 L285.099,260.168 C285.062333,260.256 285.0275,260.3165 284.9945,260.3495 C284.9615,260.3825 284.893667,260.399 284.791,260.399 C284.703,260.399 284.605834,260.377 284.4995,260.333 C284.393166,260.289 284.270334,260.243167 284.131,260.1955 C283.991666,260.147833 283.830334,260.102 283.647,260.058 C283.463666,260.014 283.251001,259.992 283.009,259.992 C282.627665,259.992 282.273835,260.056166 281.9475,260.1845 C281.621165,260.312834 281.340668,260.481499 281.106,260.6905 C280.871332,260.899501 280.688001,261.139665 280.556,261.411 C280.423999,261.682335 280.358,261.964665 280.358,262.258 C280.358,262.654002 280.422166,262.983999 280.5505,263.248 C280.678834,263.512001 280.849332,263.733832 281.062,263.9135 C281.274668,264.093168 281.516665,264.239833 281.788,264.3535 C282.059335,264.467167 282.337999,264.566166 282.624,264.6505 C282.910001,264.734834 283.188665,264.817333 283.46,264.898 C283.731335,264.978667 283.973332,265.077666 284.186,265.195 C284.398668,265.312334 284.569166,265.458999 284.6975,265.635 C284.825834,265.811001 284.89,266.034665 284.89,266.306 C284.89,266.452667 284.860667,266.623166 284.802,266.8175 C284.743333,267.011834 284.642501,267.196999 284.4995,267.373 C284.356499,267.549001 284.160335,267.697499 283.911,267.8185 C283.661665,267.939501 283.342669,268 282.954,268 C282.843999,268 282.724834,267.998167 282.5965,267.9945 C282.468166,267.990833 282.332501,267.968834 282.1895,267.9285 C282.046499,267.888166 281.896167,267.824 281.7385,267.736 C281.580833,267.648 281.417668,267.519668 281.249,267.351 C281.094999,267.204333 280.964834,267.044834 280.8585,266.8725 C280.752166,266.700166 280.664167,266.531501 280.5945,266.3665 C280.524833,266.201499 280.471667,266.047501 280.435,265.9045 C280.398333,265.761499 280.372667,265.646 280.358,265.558 L280.193,265.558 Z" id="NEWS" fill="#FFFFFF" sketch:type="MSShapeGroup"></path>
            <path d="M313.8,343.08 L313.8,348 L312.21,348 L312.21,343.08 L310.22,343.08 L310.22,341.75 L315.79,341.75 L315.79,343.08 L313.8,343.08 Z M320.27,348 L318.28,348 L316.17,341.75 L317.81,341.75 L319.29,346.46 L320.76,341.75 L322.42,341.75 L320.27,348 Z" id="TV" fill="#FFFFFF" sketch:type="MSShapeGroup"></path>
        </g>
    </g>
</svg>