<?xml version="1.0" encoding="UTF-8" standalone="no"?>
<svg width="60px" height="13px" viewBox="0 0 60 13" version="1.1" xmlns="http://www.w3.org/2000/svg" xmlns:xlink="http://www.w3.org/1999/xlink" xmlns:sketch="http://www.bohemiancoding.com/sketch/ns">
    <!-- Generator: Sketch 3.2.2 (9983) - http://www.bohemiancoding.com/sketch -->
    <title>fhp</title>
    <desc>Created with Sketch.</desc>
    <defs></defs>
    <g id="Page-1" stroke="none" stroke-width="1" fill="none" fill-rule="evenodd" sketch:type="MSPage">
        <g id="Desktop" sketch:type="MSArtboardGroup" transform="translate(-482.000000, -1936.000000)" fill="#ACB7C3">
            <g id="Group" sketch:type="MSLayerGroup" transform="translate(32.000000, 1748.000000)">
                <g id="Imported-Layers" transform="translate(450.000000, 188.000000)" sketch:type="MSShapeGroup">
                    <path d="M27.9673973,0 C27.9720462,0.0513253493 27.9807534,0.102650699 27.9807791,0.153976048 C27.9813955,4.36950499 27.9807791,8.58503393 27.9840411,12.8005369 C27.9841438,12.9291876 27.955762,12.968006 27.8218664,12.9672535 C26.7434075,12.9611297 25.6648716,12.9638283 24.586387,12.9638283 L24.4347945,12.9638283 C24.4317894,12.8945469 24.4270377,12.8357485 24.4270377,12.7769501 C24.4266267,11.2852974 24.4267551,9.79364471 24.4266524,8.30201796 C24.4266267,8.11763074 24.4263185,8.11729341 24.2431592,8.11729341 C22.2059846,8.11721557 20.1688099,8.11721557 18.131661,8.11729341 C17.9485017,8.11729341 17.9481935,8.11763074 17.9481935,8.30201796 C17.9480908,9.79367066 17.9481164,11.2853234 17.9481164,12.776976 L17.9481164,12.9638283 C17.8915839,12.9638283 17.8464298,12.9638024 17.8012757,12.9638024 C16.7142123,12.9638024 15.627149,12.9617265 14.5401113,12.9667345 C14.4185959,12.9672794 14.3911644,12.9299142 14.3912414,12.813511 C14.3939127,8.58931537 14.3934247,4.36514571 14.3940668,0.140976048 C14.3940668,0.0939840319 14.402774,0.046992016 14.4074486,0 L17.9515068,0 C17.950351,0.0172035928 17.9481935,0.0344071856 17.9481935,0.0516107784 C17.9480651,1.70712575 17.9495291,3.36264072 17.9454195,5.01812974 C17.9451113,5.14737725 17.9873887,5.17402595 18.1067979,5.17381836 C20.1605394,5.17039321 22.2142808,5.1698483 24.2680223,5.17477844 C24.4049743,5.17508982 24.429786,5.12975848 24.4290925,5.00515569 C24.4244692,4.1709501 24.4271404,3.33669261 24.4265753,2.50246108 C24.4260103,1.66830739 24.4244435,0.834153693 24.4233134,0 L27.9673973,0" id="Fill-1"></path>
                    <path d="M12.3015411,0 C12.2988185,0.0471996008 12.2937072,0.0943992016 12.2936815,0.141598802 C12.2932192,1.02783034 12.2933476,1.91406188 12.2933476,2.80031936 L12.2933476,2.97378244 L12.1206678,2.97378244 C9.33059075,2.97378244 6.54048801,2.97378244 3.75041096,2.97380838 C3.56445205,2.97380838 3.56429795,2.97391218 3.56427226,3.1630479 C3.56422089,3.78126148 3.56771404,4.399501 3.56142123,5.01763673 C3.56013699,5.14410778 3.59745719,5.17563473 3.71989726,5.17547904 C6.51855308,5.17210579 9.31718322,5.17288423 12.1158134,5.17288423 L12.2867723,5.17288423 C12.2894692,5.23142315 12.2930651,5.27348503 12.2930908,5.31554691 C12.2934247,6.20177844 12.2904195,7.08803593 12.2964812,7.97424152 C12.2973801,8.10608383 12.2521233,8.13078643 12.1346918,8.13057884 C10.3716267,8.12754291 8.60856164,8.12850299 6.84552226,8.12850299 C5.81419521,8.12850299 4.78289384,8.1283992 3.75159247,8.12863273 C3.56442637,8.12868463 3.56427226,8.12938523 3.56427226,8.32012974 C3.56424658,9.80726747 3.56424658,11.2944052 3.56424658,12.7815689 L3.56424658,12.9638283 L3.40107021,12.9638283 C2.31842466,12.9638283 1.23575342,12.9636986 0.153107877,12.9641916 C0.102071918,12.9642176 0.0510359589,12.9695629 0,12.9724172 L0,0 L12.3015411,0" id="Fill-2"></path>
                    <path d="M37.4182705,0 C37.4728767,0.00739520958 37.5274058,0.0205508982 37.5821147,0.0213033932 C38.4435873,0.0332914172 39.2956079,0.120840319 40.1307791,0.343994012 C40.6071832,0.471269461 41.066661,0.643538922 41.5016866,0.878836327 C42.3189041,1.32086228 42.789786,2.0239521 42.9713784,2.9257006 C43.154024,3.83282036 43.1269521,4.73835729 42.8470377,5.62466667 C42.5581079,6.5396487 41.9284418,7.12755489 41.062012,7.48517166 C40.3652568,7.77278044 39.6445377,7.96676846 38.8967466,8.03288423 C38.2842894,8.08703792 37.6683647,8.11485429 37.0535188,8.12463673 C36.1208476,8.13945309 35.1877911,8.12850299 34.2548887,8.12850299 L33.970762,8.12850299 L33.970762,12.9563293 L30.4134247,12.9563293 L30.4134247,12.7743553 C30.4134247,8.5765489 30.4134503,4.37871657 30.4131678,0.18091018 C30.4131421,0.120606786 30.409238,0.0603033932 30.4071575,0 L37.4182705,0 L37.4182705,0 Z M33.978339,2.63837725 C33.9737671,2.68248902 33.9696832,2.70363673 33.9696832,2.72478443 C33.9692723,3.61498603 33.9709932,4.50521357 33.9669092,5.39538922 C33.9663955,5.50577246 34.0192295,5.50909381 34.1009589,5.50893812 C35.1746147,5.50681038 36.248476,5.5182016 37.3218493,5.50006387 C37.7251798,5.49323952 38.1307192,5.4387485 38.5293236,5.37053094 C39.0184418,5.28682236 39.3889983,5.02318962 39.5205565,4.51463273 C39.5725428,4.31366467 39.5806849,4.09684232 39.5806079,3.88723353 C39.580351,3.31009581 39.2855908,2.93678044 38.7320291,2.7950519 C38.2567551,2.67335529 37.7702055,2.64418962 37.2830651,2.64136128 C36.2308305,2.63528942 35.1785188,2.63879242 34.1262586,2.63837725 C34.0802312,2.6383513 34.0342295,2.63837725 33.978339,2.63837725 L33.978339,2.63837725 Z" id="Fill-3"></path>
                    <path d="M58.4772688,0 C58.5471575,0.318876248 58.6137329,0.63850499 58.6874486,0.956473054 C59.1046233,2.75581836 59.5266267,4.55402196 59.9366096,6.35502794 C59.9744949,6.52153693 59.9727226,6.71305988 59.9332449,6.87936128 C59.4598459,8.87334331 58.9757877,10.8647305 58.4948373,12.8568443 C58.4800685,12.9180299 58.4669692,12.965982 58.3828253,12.9656188 C57.5870548,12.9622715 56.7912586,12.9634132 55.9954623,12.9628423 C55.9832363,12.9628423 55.9710103,12.9578862 55.9388784,12.9509321 C55.9761729,12.7752116 56.0112072,12.6006587 56.0503767,12.4270399 C56.4802654,10.5201138 56.9132877,8.61391417 57.3355736,6.7053014 C57.3633904,6.57958283 57.3223716,6.43313174 57.2937586,6.30064072 C56.8475342,4.23415968 56.3980479,2.16837924 55.9496661,0.102339321 C55.9423716,0.0687365269 55.939649,0.0341477046 55.9347945,0 L58.4772688,0" id="Fill-4"></path>
                    <path d="M47.4341353,0 C47.4361901,0.133944112 47.4399914,0.267862275 47.4400685,0.401806387 C47.4405565,1.35724152 47.4384503,2.31267665 47.4425599,3.26805988 C47.4430993,3.39157285 47.4067808,3.43179242 47.2825171,3.43122156 C46.3325342,3.42683633 45.3825,3.42647305 44.4325171,3.43161078 C44.3042466,3.43231138 44.2777911,3.38845908 44.2782791,3.2678004 C44.2826455,2.22593214 44.2808476,1.18403792 44.2805651,0.142143713 C44.2805394,0.094762475 44.2771233,0.0473812375 44.275274,0 L47.4341353,0" id="Fill-5"></path>
                    <path d="M48.7294264,7.93145309 L48.7294264,5.12293413 C48.7821832,5.12028743 48.827851,5.11603194 48.8734932,5.11603194 C50.8582962,5.11569461 52.8430736,5.11706986 54.827851,5.11273653 C54.9592038,5.1124511 54.9941353,5.15033533 54.993339,5.27986826 C54.9882277,6.10953293 54.9882277,6.93927545 54.993339,7.76894012 C54.9941353,7.89862874 54.959589,7.93498204 54.8278767,7.93467066 C52.8430993,7.93002595 50.8583219,7.93145309 48.8735188,7.93145309 L48.7294264,7.93145309" id="Fill-6"></path>
                    <path d="M44.2858562,12.9638283 L44.2858562,9.55943713 C44.3391524,9.55608982 44.3884932,9.55030339 44.4378339,9.55027745 C45.3828596,9.54973253 46.327911,9.54978443 47.2729623,9.54996607 C47.4395805,9.55001796 47.4401969,9.55053693 47.4402226,9.72361078 C47.4404281,10.7474711 47.4404281,11.7713313 47.4402226,12.7951657 C47.4401712,12.9636467 47.4395548,12.9637764 47.2712414,12.9638024 C46.3262158,12.9638283 45.3811644,12.9638283 44.436113,12.9638283 L44.2858562,12.9638283" id="Fill-7"></path>
                </g>
            </g>
        </g>
    </g>
</svg>