<?xml version="1.0" encoding="UTF-8" standalone="no"?>
<svg width="272px" height="302px" viewBox="0 0 272 302" version="1.1" xmlns="http://www.w3.org/2000/svg" xmlns:xlink="http://www.w3.org/1999/xlink" xmlns:sketch="http://www.bohemiancoding.com/sketch/ns">
    <!-- Generator: Sketch 3.2.2 (9983) - http://www.bohemiancoding.com/sketch -->
    <title>live-performances</title>
    <desc>Created with Sketch.</desc>
    <defs>
        <filter x="-50%" y="-50%" width="200%" height="200%" filterUnits="objectBoundingBox" id="filter-1">
            <feOffset dx="0" dy="1" in="SourceAlpha" result="shadowOffsetOuter1"></feOffset>
            <feGaussianBlur stdDeviation="1.5" in="shadowOffsetOuter1" result="shadowBlurOuter1"></feGaussianBlur>
            <feColorMatrix values="0 0 0 0 0   0 0 0 0 0   0 0 0 0 0  0 0 0 0.07 0" in="shadowBlurOuter1" type="matrix" result="shadowMatrixOuter1"></feColorMatrix>
            <feMerge>
                <feMergeNode in="shadowMatrixOuter1"></feMergeNode>
                <feMergeNode in="SourceGraphic"></feMergeNode>
            </feMerge>
        </filter>
        <linearGradient x1="50%" y1="0%" x2="50%" y2="100%" id="linearGradient-2">
            <stop stop-color="#ACB7C3" offset="0%"></stop>
            <stop stop-color="#ACB7C3" stop-opacity="0" offset="100%"></stop>
        </linearGradient>
        <linearGradient x1="50%" y1="0%" x2="50%" y2="100%" id="linearGradient-3">
            <stop stop-color="#000000" stop-opacity="0.1" offset="0%"></stop>
            <stop stop-color="#000000" stop-opacity="0" offset="100%"></stop>
        </linearGradient>
    </defs>
    <g id="Page-1" stroke="none" stroke-width="1" fill="none" fill-rule="evenodd" sketch:type="MSPage">
        <g id="Desktop" sketch:type="MSArtboardGroup" transform="translate(-137.000000, -1240.000000)">
            <rect id="Rectangle-12" fill="#FFFFFF" filter="url(#filter-1)" sketch:type="MSShapeGroup" x="33" y="1208" width="468" height="350" rx="2"></rect>
            <g id="microphone-6-icon-+-microphone-6-icon-path-2" sketch:type="MSLayerGroup" transform="translate(138.000000, 1241.000000)" opacity="0.2">
                <path d="M189.682213,6.90318875 C216.032038,-7.20872954 248.834011,2.71270877 262.945929,29.0611804 C277.055818,55.4116817 267.136409,88.2129783 240.787261,102.324897 C222.032935,112.368112 205.681674,107.74803 202.034454,107.233184 L164.112437,36.4286856 C166.055456,32.4249302 171.226917,16.788094 189.682213,6.90318875 L189.682213,6.90318875 Z M151.470637,50.823397 C151.351567,50.9011989 42.5526613,125.049151 42.5526613,125.049151 L60.6230068,158.79016 C60.6230068,158.79016 182.863381,109.75329 183.000041,109.695108 L151.470637,50.823397 L151.470637,50.823397 Z M31.8714701,142.801523 C4.00822863,158.673795 0.633060853,162.000845 0.633060853,192.396371 L20.9265122,192.396371 C20.9265122,169.394059 20.4548816,172.660554 41.9153619,160.436178 L31.8714701,142.801523 Z" id="microphone-6-icon" stroke-opacity="0.1" stroke="#000000" fill="#ACB7C3" sketch:type="MSShapeGroup"></path>
                <path d="M91.1788719,164.359425 C104.538479,169.770381 109.668671,185.347682 109.668671,198.601073 L109.668671,283.481206 L136.726832,283.481206 L136.726832,196.785243 C136.726832,170.954323 141.9125,154.720104 160.4023,137.583381 C140.052696,145.193087 91.1788719,164.359425 91.1788719,164.359425 Z" id="microphone-6-icon-path-2" stroke="url(#linearGradient-3)" fill="url(#linearGradient-2)" sketch:type="MSShapeGroup"></path>
            </g>
            <g id="of-the-participants--+-42%" sketch:type="MSLayerGroup" transform="translate(72.000000, 1325.000000)" fill="#4990E2">
                <path d="M160.042969,37.1992188 L160.042969,19.2490234 L146.765625,37.1992188 L160.042969,37.1992188 Z M165.328125,42.3554688 L165.328125,55.1494141 L160.042969,55.1494141 L160.042969,42.3554688 L139.708008,42.3554688 L139.192383,39.1650391 L160.494141,10.8056641 L165.328125,10.8056641 L165.328125,37.1992188 L171.580078,37.1992188 L171.805664,42.3554688 L165.328125,42.3554688 Z M187.5,10.8701172 C190.873064,10.8701172 193.617665,11.7402257 195.733887,13.4804688 C197.850108,15.2207118 198.908203,17.6269378 198.908203,20.6992188 C198.908203,23.7714997 197.855479,26.3442279 195.75,28.4174805 C193.644521,30.490733 191.667978,32.1987238 189.820312,33.5415039 C187.972647,34.8842841 185.963878,36.3183517 183.793945,37.84375 L200.358398,37.84375 L200.358398,43 L175.543945,43 L175.543945,38.3271484 C177.885754,36.6083898 180.109364,34.9863358 182.214844,33.4609375 C184.320323,31.9355392 186.672839,30.0717884 189.272461,27.8696289 C191.872083,25.6674695 193.171875,23.4277458 193.171875,21.1503906 C193.171875,19.6035079 192.624029,18.3466845 191.52832,17.3798828 C190.432612,16.4130811 188.885752,15.9296875 186.887695,15.9296875 C184.030259,15.9296875 180.915056,17.1865109 177.541992,19.7001953 L175.608398,15.0917969 C179.153338,12.2773297 183.117166,10.8701172 187.5,10.8701172 L187.5,10.8701172 Z M239.610352,26.1777344 C237.354481,26.1777344 235.560554,26.8974537 234.228516,28.3369141 C232.896478,29.7763744 232.230469,31.5488176 232.230469,33.6542969 C232.230469,35.7382917 232.874994,37.521477 234.164062,39.0039062 C235.453131,40.4863355 237.263172,41.2275391 239.594238,41.2275391 C241.925305,41.2275391 243.740716,40.4863355 245.040527,39.0039062 C246.340339,37.521477 246.990234,35.7382917 246.990234,33.6542969 C246.990234,31.5703021 246.324225,29.8032299 244.992188,28.3530273 C243.66015,26.9028248 241.866222,26.1777344 239.610352,26.1777344 L239.610352,26.1777344 Z M214.521973,3.58691406 C212.190906,3.58691406 210.375495,4.32811759 209.075684,5.81054688 C207.775872,7.29297616 207.125977,9.06541938 207.125977,11.1279297 C207.125977,13.19044 207.791986,14.9575122 209.124023,16.4291992 C210.456061,17.9008863 212.25536,18.6367188 214.521973,18.6367188 C216.788586,18.6367188 218.587884,17.9062573 219.919922,16.4453125 C221.25196,14.9843677 221.917969,13.2119245 221.917969,11.1279297 C221.917969,9.06541938 221.268073,7.29297616 219.968262,5.81054688 C218.668451,4.32811759 216.853039,3.58691406 214.521973,3.58691406 L214.521973,3.58691406 Z M247.538086,41.5014648 C245.518545,43.5962019 242.875993,44.6435547 239.610352,44.6435547 C236.34471,44.6435547 233.702159,43.5962019 231.682617,41.5014648 C229.663076,39.4067278 228.65332,36.8125155 228.65332,33.71875 C228.65332,30.646469 229.668447,28.0468856 231.69873,25.9199219 C233.729014,23.7929581 236.366195,22.7294922 239.610352,22.7294922 C242.854508,22.7294922 245.491689,23.7875871 247.521973,25.9038086 C249.552256,28.0200301 250.567383,30.6249845 250.567383,33.71875 C250.567383,36.8125155 249.557627,39.4067278 247.538086,41.5014648 L247.538086,41.5014648 Z M212.733398,43.9990234 L208.576172,43.9990234 L241.447266,0.815429688 L245.604492,0.815429688 L212.733398,43.9990234 Z M222.433594,18.9106445 C220.392568,21.026866 217.750016,22.0849609 214.505859,22.0849609 C211.261703,22.0849609 208.629893,21.026866 206.610352,18.9106445 C204.59081,16.794423 203.581055,14.1894686 203.581055,11.0957031 C203.581055,8.02342214 204.59081,5.43458084 206.610352,3.32910156 C208.629893,1.22362229 211.261703,0.170898438 214.505859,0.170898438 C217.771501,0.170898438 220.419423,1.21825125 222.449707,3.31298828 C224.479991,5.40772532 225.495117,8.00193766 225.495117,11.0957031 C225.495117,14.1894686 224.47462,16.794423 222.433594,18.9106445 L222.433594,18.9106445 Z" id="42%" sketch:type="MSShapeGroup"></path>
            </g>
        </g>
    </g>
</svg>