<?xml version="1.0" encoding="UTF-8" standalone="no"?>
<svg width="142px" height="142px" viewBox="0 0 142 142" version="1.1" xmlns="http://www.w3.org/2000/svg" xmlns:xlink="http://www.w3.org/1999/xlink" xmlns:sketch="http://www.bohemiancoding.com/sketch/ns">
    <!-- Generator: Sketch 3.2.2 (9983) - http://www.bohemiancoding.com/sketch -->
    <title>magazines</title>
    <desc>Created with Sketch.</desc>
    <defs>
        <filter x="-50%" y="-50%" width="200%" height="200%" filterUnits="objectBoundingBox" id="filter-1">
            <feOffset dx="0" dy="1" in="SourceAlpha" result="shadowOffsetOuter1"></feOffset>
            <feGaussianBlur stdDeviation="1.5" in="shadowOffsetOuter1" result="shadowBlurOuter1"></feGaussianBlur>
            <feColorMatrix values="0 0 0 0 0   0 0 0 0 0   0 0 0 0 0  0 0 0 0.07 0" in="shadowBlurOuter1" type="matrix" result="shadowMatrixOuter1"></feColorMatrix>
            <feMerge>
                <feMergeNode in="shadowMatrixOuter1"></feMergeNode>
                <feMergeNode in="SourceGraphic"></feMergeNode>
            </feMerge>
        </filter>
    </defs>
    <g id="Page-1" stroke="none" stroke-width="1" fill="none" fill-rule="evenodd" sketch:type="MSPage">
        <g id="Desktop" sketch:type="MSArtboardGroup" transform="translate(-678.000000, -212.000000)">
            <rect id="Rectangle-3" fill="#FFFFFF" filter="url(#filter-1)" sketch:type="MSShapeGroup" x="523" y="95" width="468" height="350" rx="2"></rect>
            <path d="M749.5,353 C787.88379,353 819,321.88379 819,283.5 C819,245.11621 787.88379,214 749.5,214 C711.11621,214 680,245.11621 680,283.5 C680,321.88379 711.11621,353 749.5,353 Z M750,322 C770.98682,322 788,304.98682 788,284 C788,263.01318 770.98682,246 750,246 C729.01318,246 712,263.01318 712,284 C712,304.98682 729.01318,322 750,322 Z" id="Oval-2" stroke-opacity="0.1" stroke="#191919" opacity="0.2" fill="#4990E2" sketch:type="MSShapeGroup"></path>
            <path d="M751.285168,213.536859 C750.526455,213.512349 749.76467,213.5 749,213.5 C710.61621,213.5 679.5,244.61621 679.5,283 C679.5,316.521812 703.232634,344.50057 734.812351,351.050722 L742.408474,320.839454 C724.810745,317.5177 711.5,302.063296 711.5,283.5 C711.5,262.51318 728.51318,245.5 749.5,245.5 C750.09839,245.5 750.693549,245.513831 751.285176,245.541191 L751.285156,213.536859 Z" id="Oval-1" stroke-opacity="0.1" stroke="#191919" fill="#4990E2" sketch:type="MSShapeGroup"></path>
            <path d="M738.847656,288.566406 L738.847656,282.583008 L734.421875,288.566406 L738.847656,288.566406 Z M740.609375,290.285156 L740.609375,294.549805 L738.847656,294.549805 L738.847656,290.285156 L732.069336,290.285156 L731.897461,289.22168 L738.998047,279.768555 L740.609375,279.768555 L740.609375,288.566406 L742.693359,288.566406 L742.768555,290.285156 L740.609375,290.285156 Z M748,279.790039 C749.124355,279.790039 750.039222,280.080075 750.744629,280.660156 C751.450036,281.240237 751.802734,282.042313 751.802734,283.066406 C751.802734,284.0905 751.451826,284.948076 750.75,285.63916 C750.048174,286.330244 749.389326,286.899575 748.773438,287.347168 C748.157549,287.794761 747.487959,288.272784 746.764648,288.78125 L752.286133,288.78125 L752.286133,290.5 L744.014648,290.5 L744.014648,288.942383 C744.795251,288.369463 745.536455,287.828779 746.238281,287.320312 C746.940108,286.811846 747.72428,286.190596 748.59082,285.456543 C749.457361,284.72249 749.890625,283.975915 749.890625,283.216797 C749.890625,282.701169 749.70801,282.282228 749.342773,281.959961 C748.977537,281.637694 748.461917,281.476562 747.795898,281.476562 C746.84342,281.476562 745.805019,281.895504 744.680664,282.733398 L744.036133,281.197266 C745.217779,280.25911 746.539055,279.790039 748,279.790039 L748,279.790039 Z M765.370117,284.892578 C764.61816,284.892578 764.020185,285.132485 763.576172,285.612305 C763.132159,286.092125 762.910156,286.682939 762.910156,287.384766 C762.910156,288.079431 763.124998,288.673826 763.554688,289.167969 C763.984377,289.662112 764.587724,289.90918 765.364746,289.90918 C766.141768,289.90918 766.746905,289.662112 767.180176,289.167969 C767.613446,288.673826 767.830078,288.079431 767.830078,287.384766 C767.830078,286.690101 767.608075,286.101077 767.164062,285.617676 C766.72005,285.134275 766.122074,284.892578 765.370117,284.892578 L765.370117,284.892578 Z M757.007324,277.362305 C756.230302,277.362305 755.625165,277.609373 755.191895,278.103516 C754.758624,278.597659 754.541992,279.188473 754.541992,279.875977 C754.541992,280.56348 754.763995,281.152504 755.208008,281.643066 C755.65202,282.133629 756.251787,282.378906 757.007324,282.378906 C757.762862,282.378906 758.362628,282.135419 758.806641,281.648438 C759.250653,281.161456 759.472656,280.570641 759.472656,279.875977 C759.472656,279.188473 759.256024,278.597659 758.822754,278.103516 C758.389484,277.609373 757.784346,277.362305 757.007324,277.362305 L757.007324,277.362305 Z M768.012695,290.000488 C767.339515,290.698734 766.458664,291.047852 765.370117,291.047852 C764.28157,291.047852 763.40072,290.698734 762.727539,290.000488 C762.054359,289.302243 761.717773,288.437505 761.717773,287.40625 C761.717773,286.382156 762.056149,285.515629 762.73291,284.806641 C763.409671,284.097653 764.288732,283.743164 765.370117,283.743164 C766.451503,283.743164 767.330563,284.095862 768.007324,284.80127 C768.684085,285.506677 769.022461,286.374995 769.022461,287.40625 C769.022461,288.437505 768.685876,289.302243 768.012695,290.000488 L768.012695,290.000488 Z M756.411133,290.833008 L755.025391,290.833008 L765.982422,276.438477 L767.368164,276.438477 L756.411133,290.833008 Z M759.644531,282.470215 C758.964189,283.175622 758.083339,283.52832 757.001953,283.52832 C755.920568,283.52832 755.043298,283.175622 754.370117,282.470215 C753.696937,281.764808 753.360352,280.89649 753.360352,279.865234 C753.360352,278.841141 753.696937,277.978194 754.370117,277.276367 C755.043298,276.574541 755.920568,276.223633 757.001953,276.223633 C758.0905,276.223633 758.973141,276.57275 759.649902,277.270996 C760.326664,277.969242 760.665039,278.833979 760.665039,279.865234 C760.665039,280.89649 760.324873,281.764808 759.644531,282.470215 L759.644531,282.470215 Z" id="42%" fill="#4990E2" sketch:type="MSShapeGroup"></path>
        </g>
    </g>
</svg>