<?xml version="1.0" encoding="UTF-8" standalone="no"?>
<svg width="414px" height="100px" viewBox="0 0 414 100" version="1.1" xmlns="http://www.w3.org/2000/svg" xmlns:xlink="http://www.w3.org/1999/xlink" xmlns:sketch="http://www.bohemiancoding.com/sketch/ns">
    <!-- Generator: Sketch 3.2.2 (9983) - http://www.bohemiancoding.com/sketch -->
    <title>movies-shows</title>
    <desc>Created with Sketch.</desc>
    <defs>
        <filter x="-50%" y="-50%" width="200%" height="200%" filterUnits="objectBoundingBox" id="filter-1">
            <feOffset dx="0" dy="1" in="SourceAlpha" result="shadowOffsetOuter1"></feOffset>
            <feGaussianBlur stdDeviation="1.5" in="shadowOffsetOuter1" result="shadowBlurOuter1"></feGaussianBlur>
            <feColorMatrix values="0 0 0 0 0   0 0 0 0 0   0 0 0 0 0  0 0 0 0.07 0" in="shadowBlurOuter1" type="matrix" result="shadowMatrixOuter1"></feColorMatrix>
            <feMerge>
                <feMergeNode in="shadowMatrixOuter1"></feMergeNode>
                <feMergeNode in="SourceGraphic"></feMergeNode>
            </feMerge>
        </filter>
        <rect id="path-2" x="0" y="0" width="414" height="100" rx="2"></rect>
    </defs>
    <g id="Page-1" stroke="none" stroke-width="1" fill="none" fill-rule="evenodd" sketch:type="MSPage">
        <g id="Desktop" sketch:type="MSArtboardGroup" transform="translate(-550.000000, -604.000000)">
            <rect id="Rectangle-4" fill="#FFFFFF" filter="url(#filter-1)" sketch:type="MSShapeGroup" x="523" y="466" width="468" height="350" rx="2"></rect>
            <g id="New-Mask-Group" sketch:type="MSLayerGroup" transform="translate(550.000000, 604.000000)">
                <mask id="mask-3" sketch:name="Mask" fill="white">
                    <use xlink:href="#path-2"></use>
                </mask>
                <use id="Mask" stroke-opacity="0.1" stroke="#000000" fill="#ACB7C3" sketch:type="MSShapeGroup" xlink:href="#path-2"></use>
                <rect id="Path" stroke-opacity="0.1" stroke="#000000" fill="#98CC31" sketch:type="MSShapeGroup" mask="url(#mask-3)" x="0" y="0" width="182" height="100"></rect>
                <rect id="Path-2" stroke-opacity="0.1" stroke="#000000" fill="#417505" sketch:type="MSShapeGroup" mask="url(#mask-3)" x="181" y="0" width="140" height="100"></rect>
            </g>
            <path d="M593.87793,655.134766 C593.87793,653.949864 593.103198,653.357422 591.553711,653.357422 L590.37793,653.357422 L590.37793,656.980469 L591.649414,656.953125 C592.387699,656.934896 592.943683,656.769696 593.317383,656.45752 C593.691083,656.145343 593.87793,655.70443 593.87793,655.134766 L593.87793,655.134766 Z M590.37793,661 L589.188477,661 L589.188477,652.25 L591.608398,652.25 C592.770514,652.25 593.639808,652.505206 594.216309,653.015625 C594.792809,653.526044 595.081055,654.246089 595.081055,655.175781 C595.081055,656.100916 594.760908,656.812986 594.120605,657.312012 C593.480303,657.811038 592.615565,658.069661 591.526367,658.087891 L590.37793,658.101562 L590.37793,661 Z M600.209961,653.480469 L598.699219,657.623047 L601.707031,657.623047 L600.209961,653.480469 Z M604.140625,661 L602.923828,661 L602.09668,658.703125 L598.302734,658.703125 L597.475586,661 L596.245117,661 L599.540039,652.25 L600.893555,652.25 L604.140625,661 Z M606.34375,661 L606.34375,652.25 L607.519531,652.25 L607.519531,661 L606.34375,661 Z M616.845703,656.645508 C616.845703,655.560867 616.539228,654.741702 615.92627,654.187988 C615.313311,653.634275 614.453131,653.357422 613.345703,653.357422 L611.958008,653.357422 L611.958008,659.892578 L613.400391,659.892578 C615.036467,659.892578 616.019692,659.484705 616.350098,658.668945 C616.680503,657.853186 616.845703,657.178714 616.845703,656.645508 L616.845703,656.645508 Z M616.791016,659.820801 C615.961584,660.606938 614.813158,661 613.345703,661 L610.768555,661 L610.768555,652.25 L613.400391,652.25 C614.82683,652.25 615.955888,652.639645 616.787598,653.418945 C617.619308,654.198246 618.035156,655.262363 618.035156,656.611328 C618.035156,657.964851 617.620447,659.034664 616.791016,659.820801 L616.791016,659.820801 Z M623.958984,661 L623.958984,652.25 L625.134766,652.25 L625.134766,661 L623.958984,661 Z M634.358398,652.25 L635.520508,652.25 L635.520508,661.082031 L634.235352,661.082031 L629.545898,653.945312 L629.545898,661 L628.383789,661 L628.383789,652.25 L629.696289,652.25 L634.358398,659.304688 L634.358398,652.25 Z M642.132812,653.371094 L642.132812,661 L640.957031,661 L640.957031,653.371094 L637.894531,653.371094 L637.894531,652.25 L645.202148,652.25 L645.202148,653.371094 L642.132812,653.371094 Z M647.569336,661 L647.569336,652.25 L653.113281,652.25 L653.113281,653.357422 L648.758789,653.357422 L648.758789,656.057617 L652.381836,656.057617 L652.381836,657.165039 L648.758789,657.165039 L648.758789,659.892578 L653.113281,659.892578 L653.113281,661 L647.569336,661 Z M660.539062,654.868164 C660.539062,654.344073 660.34538,653.958986 659.958008,653.712891 C659.570636,653.466796 659.039717,653.34375 658.365234,653.34375 L657.080078,653.34375 L657.080078,656.577148 L658.522461,656.536133 C659.452153,656.508789 660.02067,656.29118 660.228027,655.883301 C660.435385,655.475421 660.539062,655.137046 660.539062,654.868164 L660.539062,654.868164 Z M657.080078,661 L655.890625,661 L655.890625,652.25 L658.508789,652.25 C659.570643,652.25 660.372719,652.48242 660.915039,652.947266 C661.457359,653.412112 661.728516,654.004554 661.728516,654.724609 C661.728516,655.444665 661.550783,656.009764 661.195312,656.419922 C660.839842,656.83008 660.359053,657.133137 659.75293,657.329102 L662.118164,661 L660.703125,661 L658.577148,657.527344 L657.080078,657.623047 L657.080078,661 Z M670.494141,652.25 L671.65625,652.25 L671.65625,661.082031 L670.371094,661.082031 L665.681641,653.945312 L665.681641,661 L664.519531,661 L664.519531,652.25 L665.832031,652.25 L670.494141,659.304688 L670.494141,652.25 Z M674.871094,661 L674.871094,652.25 L680.415039,652.25 L680.415039,653.357422 L676.060547,653.357422 L676.060547,656.057617 L679.683594,656.057617 L679.683594,657.165039 L676.060547,657.165039 L676.060547,659.892578 L680.415039,659.892578 L680.415039,661 L674.871094,661 Z M686.589844,653.371094 L686.589844,661 L685.414062,661 L685.414062,653.371094 L682.351562,653.371094 L682.351562,652.25 L689.65918,652.25 L689.65918,653.371094 L686.589844,653.371094 Z" id="paid-internet" fill="#417505" sketch:type="MSShapeGroup"></path>
            <path d="M747.950195,657.623047 C747.950195,659.341154 747.520675,660.368813 746.661621,660.706055 C745.802567,661.043296 745.090498,661.211914 744.525391,661.211914 C743.427078,661.211914 742.580569,660.900882 741.98584,660.278809 C741.39111,659.656735 741.09375,658.814784 741.09375,657.75293 L741.09375,652.25 L742.269531,652.25 L742.269531,657.568359 C742.269531,658.361332 742.458657,658.979978 742.836914,659.424316 C743.215171,659.868655 743.771155,660.09082 744.504883,660.09082 C745.23861,660.09082 745.800291,659.890301 746.189941,659.489258 C746.579592,659.088214 746.774414,658.477543 746.774414,657.657227 L746.774414,652.25 L747.950195,652.25 L747.950195,657.623047 Z M757.125977,652.25 L758.288086,652.25 L758.288086,661.082031 L757.00293,661.082031 L752.313477,653.945312 L752.313477,661 L751.151367,661 L751.151367,652.25 L752.463867,652.25 L757.125977,659.304688 L757.125977,652.25 Z M766.192383,655.134766 C766.192383,653.949864 765.417651,653.357422 763.868164,653.357422 L762.692383,653.357422 L762.692383,656.980469 L763.963867,656.953125 C764.702152,656.934896 765.258136,656.769696 765.631836,656.45752 C766.005536,656.145343 766.192383,655.70443 766.192383,655.134766 L766.192383,655.134766 Z M762.692383,661 L761.50293,661 L761.50293,652.25 L763.922852,652.25 C765.084967,652.25 765.954261,652.505206 766.530762,653.015625 C767.107262,653.526044 767.395508,654.246089 767.395508,655.175781 C767.395508,656.100916 767.075361,656.812986 766.435059,657.312012 C765.794756,657.811038 764.930018,658.069661 763.84082,658.087891 L762.692383,658.101562 L762.692383,661 Z M772.524414,653.480469 L771.013672,657.623047 L774.021484,657.623047 L772.524414,653.480469 Z M776.455078,661 L775.238281,661 L774.411133,658.703125 L770.617188,658.703125 L769.790039,661 L768.55957,661 L771.854492,652.25 L773.208008,652.25 L776.455078,661 Z M778.658203,661 L778.658203,652.25 L779.833984,652.25 L779.833984,661 L778.658203,661 Z M789.160156,656.645508 C789.160156,655.560867 788.853681,654.741702 788.240723,654.187988 C787.627764,653.634275 786.767584,653.357422 785.660156,653.357422 L784.272461,653.357422 L784.272461,659.892578 L785.714844,659.892578 C787.35092,659.892578 788.334145,659.484705 788.664551,658.668945 C788.994956,657.853186 789.160156,657.178714 789.160156,656.645508 L789.160156,656.645508 Z M789.105469,659.820801 C788.276038,660.606938 787.127612,661 785.660156,661 L783.083008,661 L783.083008,652.25 L785.714844,652.25 C787.141283,652.25 788.270341,652.639645 789.102051,653.418945 C789.933761,654.198246 790.349609,655.262363 790.349609,656.611328 C790.349609,657.964851 789.9349,659.034664 789.105469,659.820801 L789.105469,659.820801 Z M796.273438,661 L796.273438,652.25 L797.449219,652.25 L797.449219,661 L796.273438,661 Z M806.672852,652.25 L807.834961,652.25 L807.834961,661.082031 L806.549805,661.082031 L801.860352,653.945312 L801.860352,661 L800.698242,661 L800.698242,652.25 L802.010742,652.25 L806.672852,659.304688 L806.672852,652.25 Z M814.447266,653.371094 L814.447266,661 L813.271484,661 L813.271484,653.371094 L810.208984,653.371094 L810.208984,652.25 L817.516602,652.25 L817.516602,653.371094 L814.447266,653.371094 Z M819.883789,661 L819.883789,652.25 L825.427734,652.25 L825.427734,653.357422 L821.073242,653.357422 L821.073242,656.057617 L824.696289,656.057617 L824.696289,657.165039 L821.073242,657.165039 L821.073242,659.892578 L825.427734,659.892578 L825.427734,661 L819.883789,661 Z M832.853516,654.868164 C832.853516,654.344073 832.659833,653.958986 832.272461,653.712891 C831.885089,653.466796 831.35417,653.34375 830.679688,653.34375 L829.394531,653.34375 L829.394531,656.577148 L830.836914,656.536133 C831.766606,656.508789 832.335123,656.29118 832.54248,655.883301 C832.749838,655.475421 832.853516,655.137046 832.853516,654.868164 L832.853516,654.868164 Z M829.394531,661 L828.205078,661 L828.205078,652.25 L830.823242,652.25 C831.885096,652.25 832.687172,652.48242 833.229492,652.947266 C833.771813,653.412112 834.042969,654.004554 834.042969,654.724609 C834.042969,655.444665 833.865236,656.009764 833.509766,656.419922 C833.154295,656.83008 832.673506,657.133137 832.067383,657.329102 L834.432617,661 L833.017578,661 L830.891602,657.527344 L829.394531,657.623047 L829.394531,661 Z M842.808594,652.25 L843.970703,652.25 L843.970703,661.082031 L842.685547,661.082031 L837.996094,653.945312 L837.996094,661 L836.833984,661 L836.833984,652.25 L838.146484,652.25 L842.808594,659.304688 L842.808594,652.25 Z M847.185547,661 L847.185547,652.25 L852.729492,652.25 L852.729492,653.357422 L848.375,653.357422 L848.375,656.057617 L851.998047,656.057617 L851.998047,657.165039 L848.375,657.165039 L848.375,659.892578 L852.729492,659.892578 L852.729492,661 L847.185547,661 Z M858.904297,653.371094 L858.904297,661 L857.728516,661 L857.728516,653.371094 L854.666016,653.371094 L854.666016,652.25 L861.973633,652.25 L861.973633,653.371094 L858.904297,653.371094 Z" id="unpaid-internet" fill="#98CC31" sketch:type="MSShapeGroup"></path>
            <path d="M901.345215,654.075195 C900.745928,653.428057 899.974614,653.104492 899.03125,653.104492 C898.087886,653.104492 897.321129,653.424639 896.730957,654.064941 C896.140785,654.705244 895.845703,655.55631 895.845703,656.618164 C895.845703,657.684576 896.144203,658.539059 896.741211,659.181641 C897.338219,659.824222 898.108394,660.145508 899.051758,660.145508 C899.999679,660.145508 900.768714,659.820804 901.358887,659.171387 C901.949059,658.521969 902.244141,657.670904 902.244141,656.618164 C902.244141,655.569982 901.944502,654.722334 901.345215,654.075195 L901.345215,654.075195 Z M895.862793,659.954102 C895.049312,659.115556 894.642578,658.024095 894.642578,656.679688 C894.642578,655.33528 895.056148,654.22559 895.883301,653.350586 C896.710453,652.475582 897.768874,652.038086 899.058594,652.038086 C900.348314,652.038086 901.399898,652.457353 902.213379,653.295898 C903.02686,654.134444 903.433594,655.225905 903.433594,656.570312 C903.433594,657.91472 903.016606,659.02441 902.182617,659.899414 C901.348629,660.774418 900.290208,661.211914 899.007324,661.211914 C897.72444,661.211914 896.676274,660.792647 895.862793,659.954102 L895.862793,659.954102 Z M909.444336,653.371094 L909.444336,661 L908.268555,661 L908.268555,653.371094 L905.206055,653.371094 L905.206055,652.25 L912.513672,652.25 L912.513672,653.371094 L909.444336,653.371094 Z M920.869141,661 L920.869141,657.137695 L916.070312,657.137695 L916.070312,661 L914.880859,661 L914.880859,652.25 L916.070312,652.25 L916.070312,656.057617 L920.869141,656.057617 L920.869141,652.25 L922.044922,652.25 L922.044922,661 L920.869141,661 Z M925.259766,661 L925.259766,652.25 L930.803711,652.25 L930.803711,653.357422 L926.449219,653.357422 L926.449219,656.057617 L930.072266,656.057617 L930.072266,657.165039 L926.449219,657.165039 L926.449219,659.892578 L930.803711,659.892578 L930.803711,661 L925.259766,661 Z M938.229492,654.868164 C938.229492,654.344073 938.035809,653.958986 937.648438,653.712891 C937.261066,653.466796 936.730147,653.34375 936.055664,653.34375 L934.770508,653.34375 L934.770508,656.577148 L936.212891,656.536133 C937.142583,656.508789 937.711099,656.29118 937.918457,655.883301 C938.125815,655.475421 938.229492,655.137046 938.229492,654.868164 L938.229492,654.868164 Z M934.770508,661 L933.581055,661 L933.581055,652.25 L936.199219,652.25 C937.261073,652.25 938.063148,652.48242 938.605469,652.947266 C939.147789,653.412112 939.418945,654.004554 939.418945,654.724609 C939.418945,655.444665 939.241213,656.009764 938.885742,656.419922 C938.530272,656.83008 938.049482,657.133137 937.443359,657.329102 L939.808594,661 L938.393555,661 L936.267578,657.527344 L934.770508,657.623047 L934.770508,661 Z" id="other" opacity="0.7" fill="#FFFFFF" sketch:type="MSShapeGroup"></path>
        </g>
    </g>
</svg>