<?xml version="1.0" encoding="UTF-8" standalone="no"?>
<svg width="142px" height="142px" viewBox="0 0 142 142" version="1.1" xmlns="http://www.w3.org/2000/svg" xmlns:xlink="http://www.w3.org/1999/xlink" xmlns:sketch="http://www.bohemiancoding.com/sketch/ns">
    <!-- Generator: Sketch 3.2.2 (9983) - http://www.bohemiancoding.com/sketch -->
    <title>music</title>
    <desc>Created with Sketch.</desc>
    <defs>
        <filter x="-50%" y="-50%" width="200%" height="200%" filterUnits="objectBoundingBox" id="filter-1">
            <feOffset dx="0" dy="1" in="SourceAlpha" result="shadowOffsetOuter1"></feOffset>
            <feGaussianBlur stdDeviation="1.5" in="shadowOffsetOuter1" result="shadowBlurOuter1"></feGaussianBlur>
            <feColorMatrix values="0 0 0 0 0   0 0 0 0 0   0 0 0 0 0  0 0 0 0.07 0" in="shadowBlurOuter1" type="matrix" result="shadowMatrixOuter1"></feColorMatrix>
            <feMerge>
                <feMergeNode in="shadowMatrixOuter1"></feMergeNode>
                <feMergeNode in="SourceGraphic"></feMergeNode>
            </feMerge>
        </filter>
    </defs>
    <g id="Page-1" stroke="none" stroke-width="1" fill="none" fill-rule="evenodd" sketch:type="MSPage">
        <g id="Desktop" sketch:type="MSArtboardGroup" transform="translate(-682.000000, -954.000000)">
            <rect id="Rectangle-9" fill="#FFFFFF" filter="url(#filter-1)" sketch:type="MSShapeGroup" x="523" y="837" width="468" height="350" rx="2"></rect>
            <path d="M753.5,1095 C791.88379,1095 823,1063.88379 823,1025.5 C823,987.11621 791.88379,956 753.5,956 C715.11621,956 684,987.11621 684,1025.5 C684,1063.88379 715.11621,1095 753.5,1095 Z M754,1064 C774.98682,1064 792,1046.98682 792,1026 C792,1005.01318 774.98682,988 754,988 C733.01318,988 716,1005.01318 716,1026 C716,1046.98682 733.01318,1064 754,1064 Z" id="Oval-5" stroke-opacity="0.1" stroke="#191919" opacity="0.2" fill="#4990E2" sketch:type="MSShapeGroup"></path>
            <path d="M755.285168,955.536859 C754.526455,955.512349 753.76467,955.5 753,955.5 C714.61621,955.5 683.5,986.61621 683.5,1025 C683.5,1043.21204 690.504997,1059.78797 701.967602,1072.1804 L726.176658,1051.90904 C719.566875,1045.07188 715.5,1035.76087 715.5,1025.5 C715.5,1004.51318 732.51318,987.5 753.5,987.5 C754.09839,987.5 754.693549,987.513831 755.285176,987.541191 L755.285156,955.536859 Z" id="Oval-4" stroke-opacity="0.1" stroke="#191919" fill="#4990E2" sketch:type="MSShapeGroup"></path>
            <path d="M737.918945,1023.21875 C739.122076,1022.26627 740.418287,1021.79004 741.807617,1021.79004 C743.196947,1021.79004 744.274736,1022.11051 745.041016,1022.75146 C745.807295,1023.39242 746.19043,1024.26432 746.19043,1025.36719 C746.19043,1026.47006 745.823409,1027.27571 745.089355,1027.78418 C744.355302,1028.29265 743.805666,1028.61849 743.44043,1028.76172 C744.457362,1028.91927 745.250485,1029.32926 745.819824,1029.9917 C746.389163,1030.65414 746.673828,1031.36491 746.673828,1032.12402 C746.673828,1033.53484 746.194015,1034.6359 745.234375,1035.42725 C744.274735,1036.21859 743.039396,1036.61426 741.52832,1036.61426 C740.010084,1036.61426 738.799809,1036.33496 737.897461,1035.77637 L738.230469,1034.0791 C739.089848,1034.66634 740.224928,1034.95996 741.635742,1034.95996 C742.559575,1034.95996 743.315101,1034.74691 743.902344,1034.3208 C744.489586,1033.89469 744.783203,1033.27344 744.783203,1032.45703 C744.783203,1031.64062 744.40723,1030.97998 743.655273,1030.4751 C742.903317,1029.97021 741.607106,1029.88965 739.766602,1030.2334 L739.766602,1028.67578 C741.807627,1028.21745 743.05908,1027.68392 743.520996,1027.0752 C743.982912,1026.46647 744.213867,1025.95085 744.213867,1025.52832 C744.213867,1024.86946 743.997235,1024.36279 743.563965,1024.0083 C743.130694,1023.65381 742.477218,1023.47656 741.603516,1023.47656 C740.729813,1023.47656 739.712896,1023.90267 738.552734,1024.75488 L737.918945,1023.21875 Z M747.522461,1023.21875 C748.725592,1022.26627 750.021803,1021.79004 751.411133,1021.79004 C752.800463,1021.79004 753.878251,1022.11051 754.644531,1022.75146 C755.410811,1023.39242 755.793945,1024.26432 755.793945,1025.36719 C755.793945,1026.47006 755.426924,1027.27571 754.692871,1027.78418 C753.958818,1028.29265 753.409182,1028.61849 753.043945,1028.76172 C754.060877,1028.91927 754.854001,1029.32926 755.42334,1029.9917 C755.992679,1030.65414 756.277344,1031.36491 756.277344,1032.12402 C756.277344,1033.53484 755.797531,1034.6359 754.837891,1035.42725 C753.87825,1036.21859 752.642911,1036.61426 751.131836,1036.61426 C749.613599,1036.61426 748.403325,1036.33496 747.500977,1035.77637 L747.833984,1034.0791 C748.693364,1034.66634 749.828443,1034.95996 751.239258,1034.95996 C752.163091,1034.95996 752.918617,1034.74691 753.505859,1034.3208 C754.093102,1033.89469 754.386719,1033.27344 754.386719,1032.45703 C754.386719,1031.64062 754.010746,1030.97998 753.258789,1030.4751 C752.506832,1029.97021 751.210621,1029.88965 749.370117,1030.2334 L749.370117,1028.67578 C751.411143,1028.21745 752.662595,1027.68392 753.124512,1027.0752 C753.586428,1026.46647 753.817383,1025.95085 753.817383,1025.52832 C753.817383,1024.86946 753.600751,1024.36279 753.16748,1024.0083 C752.73421,1023.65381 752.080734,1023.47656 751.207031,1023.47656 C750.333329,1023.47656 749.316412,1023.90267 748.15625,1024.75488 L747.522461,1023.21875 Z M769.02832,1026.89258 C768.276363,1026.89258 767.678388,1027.13248 767.234375,1027.6123 C766.790362,1028.09212 766.568359,1028.68294 766.568359,1029.38477 C766.568359,1030.07943 766.783201,1030.67383 767.212891,1031.16797 C767.64258,1031.66211 768.245927,1031.90918 769.022949,1031.90918 C769.799971,1031.90918 770.405109,1031.66211 770.838379,1031.16797 C771.271649,1030.67383 771.488281,1030.07943 771.488281,1029.38477 C771.488281,1028.6901 771.266278,1028.10108 770.822266,1027.61768 C770.378253,1027.13427 769.780277,1026.89258 769.02832,1026.89258 L769.02832,1026.89258 Z M760.665527,1019.3623 C759.888505,1019.3623 759.283368,1019.60937 758.850098,1020.10352 C758.416827,1020.59766 758.200195,1021.18847 758.200195,1021.87598 C758.200195,1022.56348 758.422198,1023.1525 758.866211,1023.64307 C759.310224,1024.13363 759.90999,1024.37891 760.665527,1024.37891 C761.421065,1024.37891 762.020831,1024.13542 762.464844,1023.64844 C762.908856,1023.16146 763.130859,1022.57064 763.130859,1021.87598 C763.130859,1021.18847 762.914227,1020.59766 762.480957,1020.10352 C762.047687,1019.60937 761.442549,1019.3623 760.665527,1019.3623 L760.665527,1019.3623 Z M771.670898,1032.00049 C770.997718,1032.69873 770.116867,1033.04785 769.02832,1033.04785 C767.939773,1033.04785 767.058923,1032.69873 766.385742,1032.00049 C765.712562,1031.30224 765.375977,1030.43751 765.375977,1029.40625 C765.375977,1028.38216 765.714352,1027.51563 766.391113,1026.80664 C767.067874,1026.09765 767.946935,1025.74316 769.02832,1025.74316 C770.109706,1025.74316 770.988766,1026.09586 771.665527,1026.80127 C772.342289,1027.50668 772.680664,1028.37499 772.680664,1029.40625 C772.680664,1030.43751 772.344079,1031.30224 771.670898,1032.00049 L771.670898,1032.00049 Z M760.069336,1032.83301 L758.683594,1032.83301 L769.640625,1018.43848 L771.026367,1018.43848 L760.069336,1032.83301 Z M763.302734,1024.47021 C762.622392,1025.17562 761.741542,1025.52832 760.660156,1025.52832 C759.578771,1025.52832 758.701501,1025.17562 758.02832,1024.47021 C757.35514,1023.76481 757.018555,1022.89649 757.018555,1021.86523 C757.018555,1020.84114 757.35514,1019.97819 758.02832,1019.27637 C758.701501,1018.57454 759.578771,1018.22363 760.660156,1018.22363 C761.748703,1018.22363 762.631344,1018.57275 763.308105,1019.271 C763.984867,1019.96924 764.323242,1020.83398 764.323242,1021.86523 C764.323242,1022.89649 763.983076,1023.76481 763.302734,1024.47021 L763.302734,1024.47021 Z" id="33%" fill="#4990E2" sketch:type="MSShapeGroup"></path>
        </g>
    </g>
</svg>