<?xml version="1.0" encoding="UTF-8" standalone="no"?>
<svg width="142px" height="136px" viewBox="0 0 142 136" version="1.1" xmlns="http://www.w3.org/2000/svg" xmlns:xlink="http://www.w3.org/1999/xlink" xmlns:sketch="http://www.bohemiancoding.com/sketch/ns">
    <!-- Generator: Sketch 3.2.2 (9983) - http://www.bohemiancoding.com/sketch -->
    <title>promotional-purposes</title>
    <desc>Created with Sketch.</desc>
    <defs>
        <filter x="-50%" y="-50%" width="200%" height="200%" filterUnits="objectBoundingBox" id="filter-1">
            <feOffset dx="0" dy="1" in="SourceAlpha" result="shadowOffsetOuter1"></feOffset>
            <feGaussianBlur stdDeviation="1.5" in="shadowOffsetOuter1" result="shadowBlurOuter1"></feGaussianBlur>
            <feColorMatrix values="0 0 0 0 0   0 0 0 0 0   0 0 0 0 0  0 0 0 0.07 0" in="shadowBlurOuter1" type="matrix" result="shadowMatrixOuter1"></feColorMatrix>
            <feMerge>
                <feMergeNode in="shadowMatrixOuter1"></feMergeNode>
                <feMergeNode in="SourceGraphic"></feMergeNode>
            </feMerge>
        </filter>
    </defs>
    <g id="Page-1" stroke="none" stroke-width="1" fill="none" fill-rule="evenodd" sketch:type="MSPage">
        <g id="Desktop" sketch:type="MSArtboardGroup" transform="translate(-682.000000, -1315.000000)">
            <rect id="Rectangle-11" fill="#FFFFFF" filter="url(#filter-1)" sketch:type="MSShapeGroup" x="523" y="1208" width="468" height="350" rx="2"></rect>
            <polygon id="Star-1" stroke-opacity="0.1" stroke="#000000" fill="#98CC31" sketch:type="MSShapeGroup" points="753 1428.43557 731.36881 1449.57396 726.29364 1419.75815 696.36881 1424.14497 709.788202 1397.04036 683 1383 709.788202 1368.95964 696.36881 1341.85503 726.29364 1346.24185 731.36881 1316.42604 753 1337.56443 774.63119 1316.42604 779.70636 1346.24185 809.63119 1341.85503 796.211798 1368.95964 823 1383 796.211798 1397.04036 809.63119 1424.14497 779.70636 1419.75815 774.63119 1449.57396 "></polygon>
            <path d="M774.254406,1381.94499 C770.23496,1381.94499 766.976661,1383.52742 766.976661,1385.47941 C766.976661,1387.43153 770.23496,1389.01383 774.254406,1389.01383 C778.273853,1389.01383 781.532285,1387.43153 781.532285,1385.47941 C781.532285,1383.52729 778.273853,1381.94499 774.254406,1381.94499 L774.254406,1381.94499 Z M774.751591,1387.28705 L774.751324,1387.76045 L773.828725,1387.75884 L773.828725,1387.3353 C773.386204,1387.30683 772.801477,1387.18801 772.370717,1387.0132 L772.676379,1386.23307 C773.075463,1386.34841 773.625842,1386.48781 774.10084,1386.48861 C774.205623,1386.48888 774.306932,1386.4822 774.401958,1386.46723 C774.862389,1386.39426 774.978532,1386.091 774.436707,1385.91872 C773.979217,1385.76689 772.40413,1385.60651 772.404397,1384.63981 C772.404397,1384.23925 772.813639,1383.68928 773.829661,1383.52836 L773.829794,1383.04788 L774.752527,1383.04948 L774.752393,1383.49027 C775.147602,1383.51098 775.550963,1383.56525 776.016473,1383.6727 C775.970095,1383.82213 775.768682,1384.46994 775.768682,1384.46994 C775.468901,1384.39469 774.992165,1384.26679 774.52024,1384.26625 C774.485758,1384.26612 774.451142,1384.26665 774.416927,1384.26812 C773.793307,1384.29285 773.7484,1384.62684 774.168869,1384.78188 C775.031057,1385.06963 776.2799,1385.31502 776.279767,1386.16879 C776.280702,1386.82836 775.5805,1387.20312 774.751591,1387.28705 L774.751591,1387.28705 Z M779.863508,1389.19948 C780.537514,1388.87216 781.096981,1388.48965 781.532285,1388.05983 L781.532285,1389.46624 C781.532285,1391.41823 778.273853,1393.0008 774.254406,1393.0008 C770.23496,1393.0008 766.976661,1391.41823 766.976661,1389.46624 L766.976661,1388.05983 C767.412232,1388.48978 767.971432,1388.87216 768.645305,1389.19948 C770.161184,1389.93576 772.153399,1390.34126 774.254406,1390.34126 C776.355547,1390.34126 778.347629,1389.93576 779.863508,1389.19948 L779.863508,1389.19948 Z M779.863508,1397.17301 C780.537514,1396.84597 781.096981,1396.46332 781.532285,1396.0335 L781.532285,1397.46544 C781.532285,1399.41743 778.273853,1401 774.254406,1401 C770.23496,1401 766.976661,1399.41743 766.976661,1397.46544 L766.976661,1396.0335 C767.412232,1396.46345 767.971432,1396.84597 768.645305,1397.17301 C770.161184,1397.90957 772.153399,1398.3148 774.254406,1398.3148 C776.355547,1398.3148 778.347629,1397.90957 779.863508,1397.17301 L779.863508,1397.17301 Z M779.863508,1393.18631 C780.537514,1392.85913 781.096981,1392.47635 781.532285,1392.04653 L781.532285,1393.45308 C781.532285,1395.40507 778.273853,1396.9875 774.254406,1396.9875 C770.23496,1396.9875 766.976661,1395.40507 766.976661,1393.45308 L766.976661,1392.04653 C767.412232,1392.47649 767.971432,1392.85913 768.645305,1393.18631 C770.161184,1393.9226 772.153399,1394.3281 774.254406,1394.3281 C776.355547,1394.3281 778.347629,1393.9226 779.863508,1393.18631 L779.863508,1393.18631 Z M764.302955,1385.47941 C764.302955,1383.48519 765.628648,1381.69773 767.940291,1380.57519 C769.51471,1379.81043 771.512405,1379.35949 773.621698,1379.28398 L773.621698,1375.84819 L733.334881,1375.84819 L733.334881,1396.96839 L764.302955,1396.96839 L764.302955,1385.47941 L764.302955,1385.47941 Z M753.478624,1394.13323 C749.211788,1394.13323 745.753546,1390.67472 745.753546,1386.40842 C745.753546,1382.14185 749.211788,1378.68348 753.478624,1378.68348 C757.744658,1378.68348 761.203435,1382.14185 761.203435,1386.40842 C761.203301,1390.67472 757.744658,1394.13323 753.478624,1394.13323 L753.478624,1394.13323 Z M769.981823,1372.43352 L729.900964,1372.43352 L729.900964,1393.66505 L726.467715,1393.66505 L726.467715,1369 L769.981823,1369 L769.981823,1372.43352 L769.981823,1372.43352 Z M756.593648,1388.03924 C756.595653,1389.41987 755.519755,1390.20627 754.246187,1390.38537 L754.246187,1391.37626 L752.828809,1391.37626 L752.828809,1390.49015 C752.14812,1390.43215 751.250113,1390.18516 750.588001,1389.82056 L751.056852,1388.18706 C751.806639,1388.47909 752.900179,1388.84677 753.70904,1388.67021 C754.416459,1388.51611 754.594617,1387.88087 753.7621,1387.52228 C753.058556,1387.20646 750.638923,1386.8762 750.638923,1384.85285 C750.638923,1384.01365 751.267354,1382.86184 752.828809,1382.52076 L752.828809,1381.51503 L754.246187,1381.51503 L754.246187,1382.43776 C754.853634,1382.47973 755.473512,1382.59159 756.188817,1382.81546 C756.117313,1383.12807 755.807642,1384.48504 755.807642,1384.48504 C755.313798,1384.31677 754.506273,1384.02274 753.730558,1384.06644 C752.772274,1384.1203 752.704111,1384.81984 753.349917,1385.14301 C754.674541,1385.7423 756.593648,1386.25178 756.593648,1388.03924 L756.593648,1388.03924 Z" id="banknote-multi-9-icon" fill="#FFFFFF" sketch:type="MSShapeGroup"></path>
        </g>
    </g>
</svg>